# Blender v2.82 (sub 7) OBJ File: 'boat.blend'
# www.blender.org
mtllib boat.mtl
o Boat6_Cylinder.006
v 0.853998 0.085529 0.217645
v 0.853998 -0.745240 0.217645
v 0.788992 0.085529 0.016604
v 0.788992 -0.745240 0.016604
v 0.603868 0.085529 -0.209652
v 0.603868 -0.745240 -0.209652
v 0.326811 0.085529 -0.360831
v 0.326811 -0.745239 -0.360831
v 0.000000 0.085529 -0.413918
v 0.000000 -0.745239 -0.413918
v -0.853998 0.085529 0.217645
v -0.853998 -0.745240 0.217645
v -0.788992 0.085529 0.016604
v -0.788992 -0.745240 0.016604
v -0.603868 0.085529 -0.209652
v -0.603868 -0.745240 -0.209652
v -0.326811 0.085529 -0.360831
v -0.326811 -0.745239 -0.360831
v 0.722045 -1.796300 0.194403
v 0.667082 -1.796300 0.048163
v 0.510563 -1.796300 -0.131634
v 0.276315 -1.796300 -0.251771
v 0.000000 -1.796300 -0.293958
v 0.788887 1.000968 0.217645
v 0.728836 1.000968 0.016604
v 0.557827 1.000968 -0.209652
v 0.301894 1.000968 -0.360831
v 0.000000 1.000968 -0.413918
v 0.558001 1.963875 0.209212
v 0.515526 1.963875 0.045051
v 0.394566 1.963875 -0.149939
v 0.213538 1.963875 -0.280227
v 0.000000 1.963875 -0.348678
v 0.111139 3.123432 0.202017
v 0.102679 3.123432 0.077776
v 0.078587 3.123432 -0.083372
v 0.042531 3.123432 -0.191048
v 0.000000 3.123432 -0.228858
v 0.000000 3.244429 0.202017
v 0.000000 3.188836 -0.191048
v -0.722045 -1.796300 0.194403
v 0.000000 3.218267 -0.083372
v 0.000000 3.244429 0.077776
v 0.737349 0.081562 0.245518
v 0.737694 -0.738307 0.246364
v 0.705238 0.082086 0.189165
v 0.706050 -0.738252 0.189165
v 0.000000 0.085410 0.396955
v -0.667082 -1.796300 0.048163
v -0.510563 -1.796300 -0.131634
v 0.637026 -1.714336 0.215695
v 0.604586 -1.712124 0.135182
v -0.468828 0.964430 0.189165
v -0.500942 -0.738252 0.189165
v -0.509385 0.082548 0.189165
v 0.672915 0.983818 0.243248
v 0.642419 0.985166 0.189165
v 0.000000 0.908429 0.396955
v 0.000000 -1.714336 0.215695
v -0.276315 -1.796300 -0.251771
v 0.444454 1.929945 0.228057
v 0.420530 1.932054 0.189165
v 0.000000 1.921263 0.303672
v -0.271106 0.940812 0.359857
v -0.788887 1.000968 0.217645
v -0.319895 -0.738252 0.359857
v 0.000000 3.062141 0.210030
v 0.000000 3.059197 0.189165
v 0.189363 1.921286 0.266573
v 0.000000 -1.796300 0.194403
v -0.728836 1.000968 0.016604
v -0.557827 1.000968 -0.209652
v 0.277426 0.083094 0.359857
v 0.319895 -0.738252 0.359857
v -0.301894 1.000968 -0.360831
v -0.558001 1.963875 0.209212
v -0.515526 1.963875 0.045051
v -0.394566 1.963875 -0.149939
v -0.277426 0.083094 0.359857
v 0.271106 0.940812 0.359857
v -0.213538 1.963875 -0.280227
v -0.111139 3.123432 0.202017
v -0.102679 3.123432 0.077776
v -0.078587 3.123432 -0.083372
v 0.509385 0.082548 0.189165
v 0.500942 -0.738252 0.189165
v -0.189363 1.921286 0.266573
v 0.468828 0.964430 0.189165
v -0.042531 3.123432 -0.191048
v -0.420530 1.932054 0.189165
v -0.444454 1.929945 0.228057
v -0.737349 0.081562 0.245518
v -0.737694 -0.738307 0.246364
v -0.705238 0.082086 0.189165
v -0.642419 0.985166 0.189165
v -0.706050 -0.738252 0.189165
v -0.637026 -1.714336 0.215695
v -0.672915 0.983818 0.243248
v -0.604586 -1.712124 0.135182
v 0.000000 -1.712124 0.135182
vt 1.000000 0.500000
vt 1.000000 1.000000
vt 0.937500 1.000000
vt 0.937500 0.500000
vt 0.875000 1.000000
vt 0.875000 0.500000
vt 0.812500 1.000000
vt 0.812500 0.500000
vt 0.750000 1.000000
vt 0.750000 0.500000
vt 1.000000 0.500000
vt 0.937500 0.500000
vt 0.937500 1.000000
vt 1.000000 1.000000
vt 0.875000 0.500000
vt 0.875000 1.000000
vt 0.812500 0.500000
vt 0.812500 1.000000
vt 0.937500 0.500000
vt 0.920143 0.500000
vt 0.920612 0.500000
vt 0.937500 0.500000
vt 0.937500 0.500000
vt 0.937500 0.500000
vt 0.875000 0.500000
vt 0.875000 0.500000
vt 0.937500 1.000000
vt 0.875000 1.000000
vt 0.750000 0.500000
vt 0.750000 0.500000
vt 0.812500 0.500000
vt 0.875000 0.500000
vt 0.899586 0.500000
vt 0.875000 0.500000
vt 0.875000 0.500000
vt 0.901376 0.500000
vt 1.000000 1.000000
vt 0.812500 1.000000
vt 0.875000 0.500000
vt 0.937500 0.500000
vt 0.750000 0.500000
vt 1.000000 0.500000
vt 0.812500 0.500000
vt 0.750000 0.500000
vt 1.000000 0.500000
vt 1.000000 0.500000
vt 1.000000 0.500000
vt 1.000000 0.500000
vt 0.812500 0.500000
vt 0.875000 0.500000
vt 0.937500 0.500000
vt 1.000000 0.500000
vt 0.812500 0.500000
vt 0.812500 0.500000
vt 0.750000 0.500000
vt 0.812500 0.500000
vt 0.875000 0.500000
vt 0.937500 0.500000
vt 1.000000 0.500000
vt 0.937500 1.000000
vt 1.000000 1.000000
vt 0.937500 0.500000
vt 1.000000 1.000000
vt 0.875000 1.000000
vt 0.812500 1.000000
vt 0.750000 1.000000
vt 0.750000 0.500000
vt 0.750000 0.500000
vt 0.937500 1.000000
vt 0.937500 0.500000
vt 0.937500 0.500000
vt 0.937500 1.000000
vt 0.937500 1.000000
vt 0.875000 0.500000
vt 0.903144 0.500000
vt 1.000000 0.500000
vt 1.000000 1.000000
vt 1.000000 0.500000
vt 0.937500 1.000000
vt 0.937500 1.000000
vt 0.937500 0.500000
vt 0.937500 0.500000
vt 0.937500 0.500000
vt 1.000000 0.500000
vt 0.937500 1.000000
vt 1.000000 1.000000
vt 0.937500 0.500000
vt 0.920612 0.500000
vt 0.920143 0.500000
vt 1.000000 0.500000
vt 1.000000 1.000000
vt 1.000000 0.500000
vt 1.000000 1.000000
vt 1.000000 1.000000
vt 0.937500 1.000000
vt 0.937500 1.000000
vt 1.000000 0.500000
vt 0.937500 0.500000
vt 0.903144 0.500000
vt 0.937500 1.000000
vt 0.899586 0.500000
vt 0.901376 0.500000
vt 0.937500 0.500000
vt 0.937500 0.500000
vn 0.9515 0.0000 -0.3077
vn 0.7739 0.0000 -0.6332
vn 0.4790 0.0000 -0.8778
vn 0.1603 0.0000 -0.9871
vn -0.9515 0.0000 -0.3077
vn -0.7739 0.0000 -0.6332
vn -0.1603 0.0000 -0.9871
vn -0.4790 0.0000 -0.8778
vn 0.0000 -0.0000 1.0000
vn -0.8079 0.1836 -0.5600
vn 0.7604 -0.1112 -0.6398
vn -0.7798 0.5894 -0.2111
vn -0.1340 0.0005 0.9910
vn 0.9390 -0.1147 -0.3244
vn 0.4659 -0.1100 -0.8780
vn 0.7850 0.0455 -0.6178
vn -0.6099 0.3966 -0.6861
vn 0.9528 0.0652 -0.2964
vn 0.4933 0.0191 -0.8696
vn 0.1665 0.0023 -0.9860
vn -0.1780 0.0550 0.9825
vn 0.5369 0.1309 -0.8335
vn 0.9393 0.2194 -0.2637
vn -0.7244 0.1965 -0.6608
vn -0.1665 0.0023 -0.9860
vn 0.2287 0.0839 -0.9699
vn 0.8079 0.1836 -0.5600
vn 0.7244 0.1965 -0.6608
vn 0.9245 0.3445 -0.1633
vn -0.2287 0.0839 -0.9699
vn -0.9390 -0.1147 -0.3244
vn 0.3809 0.1108 -0.9179
vn 0.8853 0.2937 -0.3606
vn -0.8853 0.2937 -0.3606
vn 0.0000 -1.0000 0.0000
vn -0.7850 0.0455 -0.6178
vn 0.7491 0.6619 -0.0255
vn -0.9528 0.0652 -0.2964
vn -0.1326 0.0069 0.9911
vn 0.7612 0.6393 -0.1088
vn 0.7798 0.5894 -0.2111
vn 0.6099 0.3966 -0.6861
vn -0.1516 0.0983 0.9835
vn -0.8720 -0.0004 0.4896
vn -0.9245 0.3445 -0.1633
vn -0.5369 0.1309 -0.8335
vn 0.8742 -0.3318 0.3546
vn -0.9036 0.0754 0.4217
vn -0.8688 -0.0606 0.4915
vn -0.2361 0.0005 0.9717
vn -0.7604 -0.1112 -0.6398
vn 0.0000 0.9996 0.0275
vn -0.8491 -0.1981 0.4896
vn -0.4933 0.0191 -0.8696
vn -0.7491 0.6619 -0.0255
vn 0.1871 0.0093 0.9823
vn -0.8742 -0.3318 0.3546
vn 0.0000 -0.2248 0.9744
vn -0.7612 0.6393 -0.1088
vn 0.8688 -0.0606 0.4915
vn 0.3105 0.1159 0.9435
vn -0.0980 0.0491 0.9940
vn 0.8491 -0.1981 0.4896
vn 0.8720 -0.0004 0.4896
vn 0.9036 0.0754 0.4217
vn 0.0000 -0.0450 0.9990
vn 0.2361 0.0005 0.9717
vn 0.0000 -0.2514 0.9679
vn 0.2195 -0.0511 0.9743
vn -0.2225 0.0171 0.9748
vn 0.2225 0.0171 0.9748
vn 0.1780 0.0550 0.9825
vn 0.0478 0.0439 0.9979
vn 0.0980 0.0491 0.9940
vn 0.0000 -0.0553 0.9985
vn -0.6214 0.0167 0.7833
vn -0.1913 0.0983 0.9766
vn -0.9393 0.2194 -0.2637
vn -0.3105 0.1159 0.9435
vn -0.3809 0.1108 -0.9179
vn -0.6397 0.1255 0.7583
vn 0.1551 -0.1107 -0.9817
vn 0.1326 0.0069 0.9911
vn -0.2195 -0.0511 0.9743
vn -0.4659 -0.1100 -0.8780
vn 0.1516 0.0983 0.9835
vn 0.1340 0.0005 0.9910
vn 0.1913 0.0983 0.9766
vn -0.6856 0.0327 0.7272
vn 0.6856 0.0327 0.7272
vn 0.6371 0.0132 0.7707
vn 0.6397 0.1255 0.7583
vn 0.6214 0.0167 0.7833
vn -0.0478 0.0439 0.9979
vn -0.1551 -0.1107 -0.9817
vn -0.6371 0.0132 0.7707
vn -0.1871 0.0093 0.9823
usemtl None
s off
f 1/1/1 2/2/1 4/3/1 3/4/1
f 3/4/2 4/3/2 6/5/2 5/6/2
f 5/6/3 6/5/3 8/7/3 7/8/3
f 7/8/4 8/7/4 10/9/4 9/10/4
f 11/11/5 13/12/5 14/13/5 12/14/5
f 13/12/6 15/15/6 16/16/6 14/13/6
f 17/17/7 9/10/7 10/9/7 18/18/7
f 15/15/8 17/17/8 18/18/8 16/16/8
f 94/19/9 55/20/9 53/21/9 95/22/9
f 71/23/10 77/24/10 78/25/10 72/26/10
f 6/5/11 4/3/11 20/27/11 21/28/11
f 42/29/12 40/30/12 89/31/12 84/32/12
f 79/33/13 48/34/13 58/35/13 64/36/13
f 4/3/14 2/2/14 19/37/14 20/27/14
f 8/7/15 6/5/15 21/28/15 22/38/15
f 3/4/16 5/6/16 26/39/16 25/40/16
f 40/30/17 38/41/17 89/31/17
f 1/1/18 3/4/18 25/40/18 24/42/18
f 5/6/19 7/8/19 27/43/19 26/39/19
f 7/8/20 9/10/20 28/44/20 27/43/20
f 65/45/21 98/46/21 91/47/21 76/48/21
f 26/39/22 27/43/22 32/49/22 31/50/22
f 24/42/23 25/40/23 30/51/23 29/52/23
f 78/25/24 84/32/24 89/31/24 81/53/24
f 17/17/25 75/54/25 28/44/25 9/10/25
f 27/43/26 28/44/26 33/55/26 32/49/26
f 25/40/27 26/39/27 31/50/27 30/51/27
f 31/50/28 32/49/28 37/56/28 36/57/28
f 29/52/29 30/51/29 35/58/29 34/59/29
f 75/54/30 81/53/30 33/55/30 28/44/30
f 14/13/31 49/60/31 41/61/31 12/14/31
f 32/49/32 33/55/32 38/41/32 37/56/32
f 30/51/33 31/50/33 36/57/33 35/58/33
f 77/24/34 83/62/34 84/32/34 78/25/34
f 70/63/35 41/61/35 49/60/35 50/64/35 60/65/35 23/66/35
f 13/12/36 71/23/36 72/26/36 15/15/36
f 34/59/37 35/58/37 43/67/37 39/68/37
f 11/11/38 65/45/38 71/23/38 13/12/38
f 79/33/39 66/69/39 48/34/39
f 43/67/40 35/58/40 36/57/40 42/29/40
f 46/70/9 85/71/9 86/72/9 47/73/9
f 42/29/41 36/57/41 37/56/41 40/30/41
f 40/30/42 37/56/42 38/41/42
f 64/36/43 58/35/43 63/74/43 87/75/43
f 70/63/35 23/66/35 22/38/35 21/28/35 20/27/35 19/37/35
f 44/76/44 46/70/44 47/73/44 45/77/44
f 76/48/45 82/78/45 83/62/45 77/24/45
f 72/26/46 78/25/46 81/53/46 75/54/46
f 94/19/9 96/79/9 54/80/9 55/81/9
f 91/47/47 90/82/47 68/83/47 67/84/47
f 47/73/48 52/85/48 51/86/48 45/77/48
f 46/70/9 57/87/9 88/88/9 85/89/9
f 44/76/49 56/90/49 57/87/49 46/70/49
f 12/14/50 93/91/50 92/92/50 11/11/50
f 16/16/51 50/64/51 49/60/51 14/13/51
f 97/93/52 59/94/52 100/95/52 99/96/52
f 56/90/53 61/97/53 62/98/53 57/87/53
f 15/15/54 72/26/54 75/54/54 17/17/54
f 82/78/55 39/68/55 43/67/55 83/62/55
f 57/87/56 62/98/56 69/99/56 88/88/56
f 61/97/57 67/84/57 68/83/57 62/98/57
f 99/96/58 52/85/58 74/100/58 66/69/58
f 43/67/59 42/29/59 84/32/59 83/62/59
f 92/92/60 94/19/60 95/22/60 98/46/60
f 62/98/61 68/83/61 69/99/61
f 76/48/62 91/47/62 67/84/62 82/78/62
f 98/46/63 95/22/63 90/82/63 91/47/63
f 92/92/64 93/91/64 96/79/64 94/19/64
f 96/79/65 93/91/65 97/93/65 99/96/65
f 48/34/66 66/69/66 74/100/66
f 2/2/67 1/1/67 44/76/67 45/77/67
f 70/63/68 19/37/68 51/86/68 59/94/68
f 19/37/69 2/2/69 45/77/69 51/86/69
f 11/11/70 92/92/70 98/46/70 65/45/70
f 1/1/71 24/42/71 56/90/71 44/76/71
f 24/42/72 29/52/72 61/97/72 56/90/72
f 67/84/73 34/59/73 39/68/73
f 29/52/74 34/59/74 67/84/74 61/97/74
f 99/96/75 54/80/75 96/79/75
f 55/20/76 79/33/76 64/36/76 53/21/76
f 87/75/77 63/74/77 68/83/77
f 65/45/78 76/48/78 77/24/78 71/23/78
f 90/82/79 87/75/79 68/83/79
f 81/53/80 89/31/80 38/41/80 33/55/80
f 53/21/81 64/36/81 87/75/81
f 8/7/82 22/38/82 23/66/82 10/9/82
f 51/86/52 52/85/52 100/95/52 59/94/52
f 73/101/83 48/34/83 74/100/83
f 41/61/84 97/93/84 93/91/84 12/14/84
f 18/18/85 60/65/85 50/64/85 16/16/85
f 80/102/86 69/99/86 63/74/86 58/35/86
f 73/101/87 80/102/87 58/35/87 48/34/87
f 69/99/88 68/83/88 63/74/88
f 70/63/68 59/94/68 97/93/68 41/61/68
f 54/80/89 99/96/89 66/69/89
f 86/72/90 74/100/90 52/85/90
f 86/72/91 85/71/91 73/103/91 74/100/91
f 88/88/92 69/99/92 80/102/92
f 85/89/93 88/88/93 80/102/93 73/101/93
f 67/84/94 39/68/94 82/78/94
f 18/18/95 10/9/95 23/66/95 60/65/95
f 52/85/75 47/73/75 86/72/75
f 54/80/96 66/69/96 79/104/96 55/81/96
f 95/22/97 53/21/97 87/75/97 90/82/97
