{
    "asset" : {
        "generator" : "Khronos glTF Blender I/O v1.8.19",
        "version" : "2.0"
    },
    "scene" : 0,
    "scenes" : [
        {
            "name" : "Scene",
            "nodes" : [
                0,
                1,
                2,
                3,
                4,
                5,
                6
            ]
        }
    ],
    "nodes" : [
        {
            "mesh" : 0,
            "name" : "Boat",
            "rotation" : [
                0.03304577246308327,
                0,
                0,
                0.9994538426399231
            ],
            "translation" : [
                0,
                0.0014619827270507812,
                -0.15205460786819458
            ]
        },
        {
            "mesh" : 1,
            "name" : "Plane",
            "translation" : [
                0.016732215881347656,
                3.7233002185821533,
                -1.8811450004577637
            ]
        },
        {
            "mesh" : 2,
            "name" : "Plane.002",
            "translation" : [
                0.052312493324279785,
                3.9861795902252197,
                -7.962804317474365
            ]
        },
        {
            "mesh" : 3,
            "name" : "Plane.003",
            "translation" : [
                -1.4580334424972534,
                2.5415353775024414,
                -16.055675506591797
            ]
        },
        {
            "mesh" : 4,
            "name" : "Plane.004",
            "rotation" : [
                -0.09450192004442215,
                0,
                0,
                0.9955247044563293
            ],
            "translation" : [
                -1.0393807888031006,
                7.834081649780273,
                -11.16645622253418
            ]
        },
        {
            "mesh" : 5,
            "name" : "Plane.005",
            "rotation" : [
                -0.09450192004442215,
                0,
                0,
                0.9955247044563293
            ],
            "translation" : [
                -2.0948591232299805,
                10.31521224975586,
                -3.0833940505981445
            ]
        },
        {
            "mesh" : 6,
            "name" : "Cube",
            "translation" : [
                0,
                0.7529350519180298,
                0
            ]
        }
    ],
    "materials" : [
        {
            "doubleSided" : true,
            "name" : "Black",
            "pbrMetallicRoughness" : {
                "baseColorFactor" : [
                    0,
                    0,
                    0,
                    1
                ],
                "metallicFactor" : 0,
                "roughnessFactor" : 0.5
            }
        },
        {
            "doubleSided" : true,
            "name" : "Brown",
            "pbrMetallicRoughness" : {
                "baseColorFactor" : [
                    0.10932880640029907,
                    0.06174163892865181,
                    0.01617075875401497,
                    1
                ],
                "metallicFactor" : 0,
                "roughnessFactor" : 0.5
            }
        },
        {
            "doubleSided" : true,
            "name" : "Wood",
            "pbrMetallicRoughness" : {
                "baseColorFactor" : [
                    0.597201943397522,
                    0.428690642118454,
                    0.2746773660182953,
                    1
                ],
                "metallicFactor" : 0,
                "roughnessFactor" : 0.5
            }
        },
        {
            "doubleSided" : true,
            "name" : "White",
            "pbrMetallicRoughness" : {
                "baseColorFactor" : [
                    0.800000011920929,
                    0.800000011920929,
                    0.800000011920929,
                    1
                ],
                "metallicFactor" : 0,
                "roughnessFactor" : 0.5
            }
        },
        {
            "doubleSided" : true,
            "name" : "Creme",
            "pbrMetallicRoughness" : {
                "baseColorFactor" : [
                    0.7000000476837158,
                    0.5880218744277954,
                    0.22069211304187775,
                    1
                ],
                "metallicFactor" : 0,
                "roughnessFactor" : 0.5
            }
        }
    ],
    "meshes" : [
        {
            "name" : "Plane.002",
            "primitives" : [
                {
                    "attributes" : {
                        "POSITION" : 0,
                        "NORMAL" : 1,
                        "TEXCOORD_0" : 2
                    },
                    "indices" : 3,
                    "material" : 0
                },
                {
                    "attributes" : {
                        "POSITION" : 4,
                        "NORMAL" : 5,
                        "TEXCOORD_0" : 6
                    },
                    "indices" : 7,
                    "material" : 1
                },
                {
                    "attributes" : {
                        "POSITION" : 8,
                        "NORMAL" : 9,
                        "TEXCOORD_0" : 10
                    },
                    "indices" : 11,
                    "material" : 2
                },
                {
                    "attributes" : {
                        "POSITION" : 12,
                        "NORMAL" : 13,
                        "TEXCOORD_0" : 14
                    },
                    "indices" : 15,
                    "material" : 3
                },
                {
                    "attributes" : {
                        "POSITION" : 16,
                        "NORMAL" : 17,
                        "TEXCOORD_0" : 18
                    },
                    "indices" : 19,
                    "material" : 4
                }
            ]
        },
        {
            "name" : "Plane",
            "primitives" : [
                {
                    "attributes" : {
                        "POSITION" : 20,
                        "NORMAL" : 21,
                        "TEXCOORD_0" : 22
                    },
                    "indices" : 23
                }
            ]
        },
        {
            "name" : "Plane.007",
            "primitives" : [
                {
                    "attributes" : {
                        "POSITION" : 24,
                        "NORMAL" : 25,
                        "TEXCOORD_0" : 26
                    },
                    "indices" : 27
                }
            ]
        },
        {
            "name" : "Plane.008",
            "primitives" : [
                {
                    "attributes" : {
                        "POSITION" : 28,
                        "NORMAL" : 29,
                        "TEXCOORD_0" : 30
                    },
                    "indices" : 27
                }
            ]
        },
        {
            "name" : "Plane.009",
            "primitives" : [
                {
                    "attributes" : {
                        "POSITION" : 31,
                        "NORMAL" : 32,
                        "TEXCOORD_0" : 33
                    },
                    "indices" : 34
                }
            ]
        },
        {
            "name" : "Plane.010",
            "primitives" : [
                {
                    "attributes" : {
                        "POSITION" : 35,
                        "NORMAL" : 36,
                        "TEXCOORD_0" : 37
                    },
                    "indices" : 38
                }
            ]
        },
        {
            "name" : "Cube",
            "primitives" : [
                {
                    "attributes" : {
                        "POSITION" : 39,
                        "NORMAL" : 40,
                        "TEXCOORD_0" : 41
                    },
                    "indices" : 42
                }
            ]
        }
    ],
    "accessors" : [
        {
            "bufferView" : 0,
            "componentType" : 5126,
            "count" : 3550,
            "max" : [
                2.5310986042022705,
                15.632018089294434,
                6.046480655670166
            ],
            "min" : [
                -2.5310986042022705,
                1.3297245502471924,
                -7.1269426345825195
            ],
            "type" : "VEC3"
        },
        {
            "bufferView" : 1,
            "componentType" : 5126,
            "count" : 3550,
            "type" : "VEC3"
        },
        {
            "bufferView" : 2,
            "componentType" : 5126,
            "count" : 3550,
            "type" : "VEC2"
        },
        {
            "bufferView" : 3,
            "componentType" : 5123,
            "count" : 5346,
            "type" : "SCALAR"
        },
        {
            "bufferView" : 4,
            "componentType" : 5126,
            "count" : 2551,
            "max" : [
                2.3084604740142822,
                21.326404571533203,
                5.926808834075928
            ],
            "min" : [
                -2.3084604740142822,
                -0.7602600455284119,
                -14.651392936706543
            ],
            "type" : "VEC3"
        },
        {
            "bufferView" : 5,
            "componentType" : 5126,
            "count" : 2551,
            "type" : "VEC3"
        },
        {
            "bufferView" : 6,
            "componentType" : 5126,
            "count" : 2551,
            "type" : "VEC2"
        },
        {
            "bufferView" : 7,
            "componentType" : 5123,
            "count" : 3999,
            "type" : "SCALAR"
        },
        {
            "bufferView" : 8,
            "componentType" : 5126,
            "count" : 3472,
            "max" : [
                2.6937355995178223,
                12.451810836791992,
                5.676583766937256
            ],
            "min" : [
                -2.6937355995178223,
                0.8396115899085999,
                -8.507475852966309
            ],
            "type" : "VEC3"
        },
        {
            "bufferView" : 9,
            "componentType" : 5126,
            "count" : 3472,
            "type" : "VEC3"
        },
        {
            "bufferView" : 10,
            "componentType" : 5126,
            "count" : 3472,
            "type" : "VEC2"
        },
        {
            "bufferView" : 11,
            "componentType" : 5123,
            "count" : 5628,
            "type" : "SCALAR"
        },
        {
            "bufferView" : 12,
            "componentType" : 5126,
            "count" : 773,
            "max" : [
                2.3107972145080566,
                2.464059352874756,
                5.136016368865967
            ],
            "min" : [
                -2.3107972145080566,
                -0.8153893947601318,
                -7.203604221343994
            ],
            "type" : "VEC3"
        },
        {
            "bufferView" : 13,
            "componentType" : 5126,
            "count" : 773,
            "type" : "VEC3"
        },
        {
            "bufferView" : 14,
            "componentType" : 5126,
            "count" : 773,
            "type" : "VEC2"
        },
        {
            "bufferView" : 15,
            "componentType" : 5123,
            "count" : 1125,
            "type" : "SCALAR"
        },
        {
            "bufferView" : 16,
            "componentType" : 5126,
            "count" : 1612,
            "max" : [
                2.5525147914886475,
                14.761444091796875,
                3.1524007320404053
            ],
            "min" : [
                -2.5525147914886475,
                1.4970076084136963,
                -14.458612442016602
            ],
            "type" : "VEC3"
        },
        {
            "bufferView" : 17,
            "componentType" : 5126,
            "count" : 1612,
            "type" : "VEC3"
        },
        {
            "bufferView" : 18,
            "componentType" : 5126,
            "count" : 1612,
            "type" : "VEC2"
        },
        {
            "bufferView" : 19,
            "componentType" : 5123,
            "count" : 2418,
            "type" : "SCALAR"
        },
        {
            "bufferView" : 20,
            "componentType" : 5126,
            "count" : 138,
            "max" : [
                0.012905781157314777,
                11.836471557617188,
                11.63068675994873
            ],
            "min" : [
                -2.9802322387695312e-08,
                0.03356289863586426,
                -0.12903070449829102
            ],
            "type" : "VEC3"
        },
        {
            "bufferView" : 21,
            "componentType" : 5126,
            "count" : 138,
            "type" : "VEC3"
        },
        {
            "bufferView" : 22,
            "componentType" : 5126,
            "count" : 138,
            "type" : "VEC2"
        },
        {
            "bufferView" : 23,
            "componentType" : 5123,
            "count" : 138,
            "type" : "SCALAR"
        },
        {
            "bufferView" : 24,
            "componentType" : 5126,
            "count" : 3,
            "max" : [
                1.575136423110962,
                7.757168292999268,
                6.151787757873535
            ],
            "min" : [
                -0.02626653015613556,
                -0.23152828216552734,
                1.6337838172912598
            ],
            "type" : "VEC3"
        },
        {
            "bufferView" : 25,
            "componentType" : 5126,
            "count" : 3,
            "type" : "VEC3"
        },
        {
            "bufferView" : 26,
            "componentType" : 5126,
            "count" : 3,
            "type" : "VEC2"
        },
        {
            "bufferView" : 27,
            "componentType" : 5123,
            "count" : 3,
            "type" : "SCALAR"
        },
        {
            "bufferView" : 28,
            "componentType" : 5126,
            "count" : 3,
            "max" : [
                2.6627960205078125,
                10.43601131439209,
                12.763909339904785
            ],
            "min" : [
                1.36637544631958,
                1.25571870803833,
                1.9496924877166748
            ],
            "type" : "VEC3"
        },
        {
            "bufferView" : 29,
            "componentType" : 5126,
            "count" : 3,
            "type" : "VEC3"
        },
        {
            "bufferView" : 30,
            "componentType" : 5126,
            "count" : 3,
            "type" : "VEC2"
        },
        {
            "bufferView" : 31,
            "componentType" : 5126,
            "count" : 90,
            "max" : [
                2.6627960205078125,
                10.43601131439209,
                12.763909339904785
            ],
            "min" : [
                1.36637544631958,
                1.25571870803833,
                1.9496924877166748
            ],
            "type" : "VEC3"
        },
        {
            "bufferView" : 32,
            "componentType" : 5126,
            "count" : 90,
            "type" : "VEC3"
        },
        {
            "bufferView" : 33,
            "componentType" : 5126,
            "count" : 90,
            "type" : "VEC2"
        },
        {
            "bufferView" : 34,
            "componentType" : 5123,
            "count" : 99,
            "type" : "SCALAR"
        },
        {
            "bufferView" : 35,
            "componentType" : 5126,
            "count" : 192,
            "max" : [
                2.2087714672088623,
                10.215055465698242,
                10.060199737548828
            ],
            "min" : [
                2.0125603675842285,
                1.6996091604232788,
                2.86163067817688
            ],
            "type" : "VEC3"
        },
        {
            "bufferView" : 36,
            "componentType" : 5126,
            "count" : 192,
            "type" : "VEC3"
        },
        {
            "bufferView" : 37,
            "componentType" : 5126,
            "count" : 192,
            "type" : "VEC2"
        },
        {
            "bufferView" : 38,
            "componentType" : 5123,
            "count" : 288,
            "type" : "SCALAR"
        },
        {
            "bufferView" : 39,
            "componentType" : 5126,
            "count" : 366,
            "max" : [
                2.4167582988739014,
                2.160179615020752,
                6.0204386711120605
            ],
            "min" : [
                -2.4167582988739014,
                -1.7997523546218872,
                -7.285197734832764
            ],
            "type" : "VEC3"
        },
        {
            "bufferView" : 40,
            "componentType" : 5126,
            "count" : 366,
            "type" : "VEC3"
        },
        {
            "bufferView" : 41,
            "componentType" : 5126,
            "count" : 366,
            "type" : "VEC2"
        },
        {
            "bufferView" : 42,
            "componentType" : 5123,
            "count" : 546,
            "type" : "SCALAR"
        }
    ],
    "bufferViews" : [
        {
            "buffer" : 0,
            "byteLength" : 42600,
            "byteOffset" : 0
        },
        {
            "buffer" : 0,
            "byteLength" : 42600,
            "byteOffset" : 42600
        },
        {
            "buffer" : 0,
            "byteLength" : 28400,
            "byteOffset" : 85200
        },
        {
            "buffer" : 0,
            "byteLength" : 10692,
            "byteOffset" : 113600
        },
        {
            "buffer" : 0,
            "byteLength" : 30612,
            "byteOffset" : 124292
        },
        {
            "buffer" : 0,
            "byteLength" : 30612,
            "byteOffset" : 154904
        },
        {
            "buffer" : 0,
            "byteLength" : 20408,
            "byteOffset" : 185516
        },
        {
            "buffer" : 0,
            "byteLength" : 7998,
            "byteOffset" : 205924
        },
        {
            "buffer" : 0,
            "byteLength" : 41664,
            "byteOffset" : 213924
        },
        {
            "buffer" : 0,
            "byteLength" : 41664,
            "byteOffset" : 255588
        },
        {
            "buffer" : 0,
            "byteLength" : 27776,
            "byteOffset" : 297252
        },
        {
            "buffer" : 0,
            "byteLength" : 11256,
            "byteOffset" : 325028
        },
        {
            "buffer" : 0,
            "byteLength" : 9276,
            "byteOffset" : 336284
        },
        {
            "buffer" : 0,
            "byteLength" : 9276,
            "byteOffset" : 345560
        },
        {
            "buffer" : 0,
            "byteLength" : 6184,
            "byteOffset" : 354836
        },
        {
            "buffer" : 0,
            "byteLength" : 2250,
            "byteOffset" : 361020
        },
        {
            "buffer" : 0,
            "byteLength" : 19344,
            "byteOffset" : 363272
        },
        {
            "buffer" : 0,
            "byteLength" : 19344,
            "byteOffset" : 382616
        },
        {
            "buffer" : 0,
            "byteLength" : 12896,
            "byteOffset" : 401960
        },
        {
            "buffer" : 0,
            "byteLength" : 4836,
            "byteOffset" : 414856
        },
        {
            "buffer" : 0,
            "byteLength" : 1656,
            "byteOffset" : 419692
        },
        {
            "buffer" : 0,
            "byteLength" : 1656,
            "byteOffset" : 421348
        },
        {
            "buffer" : 0,
            "byteLength" : 1104,
            "byteOffset" : 423004
        },
        {
            "buffer" : 0,
            "byteLength" : 276,
            "byteOffset" : 424108
        },
        {
            "buffer" : 0,
            "byteLength" : 36,
            "byteOffset" : 424384
        },
        {
            "buffer" : 0,
            "byteLength" : 36,
            "byteOffset" : 424420
        },
        {
            "buffer" : 0,
            "byteLength" : 24,
            "byteOffset" : 424456
        },
        {
            "buffer" : 0,
            "byteLength" : 6,
            "byteOffset" : 424480
        },
        {
            "buffer" : 0,
            "byteLength" : 36,
            "byteOffset" : 424488
        },
        {
            "buffer" : 0,
            "byteLength" : 36,
            "byteOffset" : 424524
        },
        {
            "buffer" : 0,
            "byteLength" : 24,
            "byteOffset" : 424560
        },
        {
            "buffer" : 0,
            "byteLength" : 1080,
            "byteOffset" : 424584
        },
        {
            "buffer" : 0,
            "byteLength" : 1080,
            "byteOffset" : 425664
        },
        {
            "buffer" : 0,
            "byteLength" : 720,
            "byteOffset" : 426744
        },
        {
            "buffer" : 0,
            "byteLength" : 198,
            "byteOffset" : 427464
        },
        {
            "buffer" : 0,
            "byteLength" : 2304,
            "byteOffset" : 427664
        },
        {
            "buffer" : 0,
            "byteLength" : 2304,
            "byteOffset" : 429968
        },
        {
            "buffer" : 0,
            "byteLength" : 1536,
            "byteOffset" : 432272
        },
        {
            "buffer" : 0,
            "byteLength" : 576,
            "byteOffset" : 433808
        },
        {
            "buffer" : 0,
            "byteLength" : 4392,
            "byteOffset" : 434384
        },
        {
            "buffer" : 0,
            "byteLength" : 4392,
            "byteOffset" : 438776
        },
        {
            "buffer" : 0,
            "byteLength" : 2928,
            "byteOffset" : 443168
        },
        {
            "buffer" : 0,
            "byteLength" : 1092,
            "byteOffset" : 446096
        }
    ],
    "buffers" : [
        {
            "byteLength" : 447188,
            "uri" : "data:application/octet-stream;base64,"
        }
    ]
}
