{
    "asset" : {
        "generator" : "Khronos glTF Blender I/O v1.8.19",
        "version" : "2.0"
    },
    "scene" : 0,
    "scenes" : [
        {
            "name" : "Scene",
            "nodes" : [
                0
            ]
        }
    ],
    "nodes" : [
        {
            "mesh" : 0,
            "name" : "Boat",
            "rotation" : [
                0.03304577246308327,
                0,
                0,
                0.9994538426399231
            ],
            "translation" : [
                0,
                0.0014619827270507812,
                -0.15205460786819458
            ]
        }
    ],
    "materials" : [
        {
            "doubleSided" : true,
            "name" : "Black",
            "pbrMetallicRoughness" : {
                "baseColorFactor" : [
                    0,
                    0,
                    0,
                    1
                ],
                "metallicFactor" : 0,
                "roughnessFactor" : 0.5
            }
        },
        {
            "doubleSided" : true,
            "name" : "Brown",
            "pbrMetallicRoughness" : {
                "baseColorFactor" : [
                    0.10932880640029907,
                    0.06174163892865181,
                    0.01617075875401497,
                    1
                ],
                "metallicFactor" : 0,
                "roughnessFactor" : 0.5
            }
        },
        {
            "doubleSided" : true,
            "name" : "Wood",
            "pbrMetallicRoughness" : {
                "baseColorFactor" : [
                    0.597201943397522,
                    0.428690642118454,
                    0.2746773660182953,
                    1
                ],
                "metallicFactor" : 0,
                "roughnessFactor" : 0.5
            }
        },
        {
            "doubleSided" : true,
            "name" : "White",
            "pbrMetallicRoughness" : {
                "baseColorFactor" : [
                    0.800000011920929,
                    0.800000011920929,
                    0.800000011920929,
                    1
                ],
                "metallicFactor" : 0,
                "roughnessFactor" : 0.5
            }
        },
        {
            "doubleSided" : true,
            "name" : "Creme",
            "pbrMetallicRoughness" : {
                "baseColorFactor" : [
                    0.7000000476837158,
                    0.5880218744277954,
                    0.22069211304187775,
                    1
                ],
                "metallicFactor" : 0,
                "roughnessFactor" : 0.5
            }
        }
    ],
    "meshes" : [
        {
            "name" : "Plane.002",
            "primitives" : [
                {
                    "attributes" : {
                        "POSITION" : 0,
                        "NORMAL" : 1,
                        "TEXCOORD_0" : 2
                    },
                    "indices" : 3,
                    "material" : 0
                },
                {
                    "attributes" : {
                        "POSITION" : 4,
                        "NORMAL" : 5,
                        "TEXCOORD_0" : 6
                    },
                    "indices" : 7,
                    "material" : 1
                },
                {
                    "attributes" : {
                        "POSITION" : 8,
                        "NORMAL" : 9,
                        "TEXCOORD_0" : 10
                    },
                    "indices" : 11,
                    "material" : 2
                },
                {
                    "attributes" : {
                        "POSITION" : 12,
                        "NORMAL" : 13,
                        "TEXCOORD_0" : 14
                    },
                    "indices" : 15,
                    "material" : 3
                },
                {
                    "attributes" : {
                        "POSITION" : 16,
                        "NORMAL" : 17,
                        "TEXCOORD_0" : 18
                    },
                    "indices" : 19,
                    "material" : 4
                }
            ]
        }
    ],
    "accessors" : [
        {
            "bufferView" : 0,
            "componentType" : 5126,
            "count" : 3550,
            "max" : [
                2.5310986042022705,
                15.632018089294434,
                6.046480655670166
            ],
            "min" : [
                -2.5310986042022705,
                1.3297245502471924,
                -7.1269426345825195
            ],
            "type" : "VEC3"
        },
        {
            "bufferView" : 1,
            "componentType" : 5126,
            "count" : 3550,
            "type" : "VEC3"
        },
        {
            "bufferView" : 2,
            "componentType" : 5126,
            "count" : 3550,
            "type" : "VEC2"
        },
        {
            "bufferView" : 3,
            "componentType" : 5123,
            "count" : 5346,
            "type" : "SCALAR"
        },
        {
            "bufferView" : 4,
            "componentType" : 5126,
            "count" : 2363,
            "max" : [
                2.3084604740142822,
                21.326404571533203,
                5.926808834075928
            ],
            "min" : [
                -2.3084604740142822,
                -0.00012984916975256056,
                -14.651392936706543
            ],
            "type" : "VEC3"
        },
        {
            "bufferView" : 5,
            "componentType" : 5126,
            "count" : 2363,
            "type" : "VEC3"
        },
        {
            "bufferView" : 6,
            "componentType" : 5126,
            "count" : 2363,
            "type" : "VEC2"
        },
        {
            "bufferView" : 7,
            "componentType" : 5123,
            "count" : 3699,
            "type" : "SCALAR"
        },
        {
            "bufferView" : 8,
            "componentType" : 5126,
            "count" : 3472,
            "max" : [
                2.6937355995178223,
                12.451810836791992,
                5.676583766937256
            ],
            "min" : [
                -2.6937355995178223,
                0.8396115899085999,
                -8.507475852966309
            ],
            "type" : "VEC3"
        },
        {
            "bufferView" : 9,
            "componentType" : 5126,
            "count" : 3472,
            "type" : "VEC3"
        },
        {
            "bufferView" : 10,
            "componentType" : 5126,
            "count" : 3472,
            "type" : "VEC2"
        },
        {
            "bufferView" : 11,
            "componentType" : 5123,
            "count" : 5628,
            "type" : "SCALAR"
        },
        {
            "bufferView" : 12,
            "componentType" : 5126,
            "count" : 773,
            "max" : [
                2.3107972145080566,
                2.464059352874756,
                5.136016368865967
            ],
            "min" : [
                -2.3107972145080566,
                -0.8153893947601318,
                -7.203604221343994
            ],
            "type" : "VEC3"
        },
        {
            "bufferView" : 13,
            "componentType" : 5126,
            "count" : 773,
            "type" : "VEC3"
        },
        {
            "bufferView" : 14,
            "componentType" : 5126,
            "count" : 773,
            "type" : "VEC2"
        },
        {
            "bufferView" : 15,
            "componentType" : 5123,
            "count" : 1125,
            "type" : "SCALAR"
        },
        {
            "bufferView" : 16,
            "componentType" : 5126,
            "count" : 1612,
            "max" : [
                2.5525147914886475,
                14.761444091796875,
                3.1524007320404053
            ],
            "min" : [
                -2.5525147914886475,
                1.4970076084136963,
                -14.458612442016602
            ],
            "type" : "VEC3"
        },
        {
            "bufferView" : 17,
            "componentType" : 5126,
            "count" : 1612,
            "type" : "VEC3"
        },
        {
            "bufferView" : 18,
            "componentType" : 5126,
            "count" : 1612,
            "type" : "VEC2"
        },
        {
            "bufferView" : 19,
            "componentType" : 5123,
            "count" : 2418,
            "type" : "SCALAR"
        }
    ],
    "bufferViews" : [
        {
            "buffer" : 0,
            "byteLength" : 42600,
            "byteOffset" : 0
        },
        {
            "buffer" : 0,
            "byteLength" : 42600,
            "byteOffset" : 42600
        },
        {
            "buffer" : 0,
            "byteLength" : 28400,
            "byteOffset" : 85200
        },
        {
            "buffer" : 0,
            "byteLength" : 10692,
            "byteOffset" : 113600
        },
        {
            "buffer" : 0,
            "byteLength" : 28356,
            "byteOffset" : 124292
        },
        {
            "buffer" : 0,
            "byteLength" : 28356,
            "byteOffset" : 152648
        },
        {
            "buffer" : 0,
            "byteLength" : 18904,
            "byteOffset" : 181004
        },
        {
            "buffer" : 0,
            "byteLength" : 7398,
            "byteOffset" : 199908
        },
        {
            "buffer" : 0,
            "byteLength" : 41664,
            "byteOffset" : 207308
        },
        {
            "buffer" : 0,
            "byteLength" : 41664,
            "byteOffset" : 248972
        },
        {
            "buffer" : 0,
            "byteLength" : 27776,
            "byteOffset" : 290636
        },
        {
            "buffer" : 0,
            "byteLength" : 11256,
            "byteOffset" : 318412
        },
        {
            "buffer" : 0,
            "byteLength" : 9276,
            "byteOffset" : 329668
        },
        {
            "buffer" : 0,
            "byteLength" : 9276,
            "byteOffset" : 338944
        },
        {
            "buffer" : 0,
            "byteLength" : 6184,
            "byteOffset" : 348220
        },
        {
            "buffer" : 0,
            "byteLength" : 2250,
            "byteOffset" : 354404
        },
        {
            "buffer" : 0,
            "byteLength" : 19344,
            "byteOffset" : 356656
        },
        {
            "buffer" : 0,
            "byteLength" : 19344,
            "byteOffset" : 376000
        },
        {
            "buffer" : 0,
            "byteLength" : 12896,
            "byteOffset" : 395344
        },
        {
            "buffer" : 0,
            "byteLength" : 4836,
            "byteOffset" : 408240
        }
    ],
    "buffers" : [
        {
            "byteLength" : 413076,
            "uri" : "data:application/octet-stream;base64,"
        }
    ]
}
