{
    "asset" : {
        "generator" : "Khronos glTF Blender I/O v1.8.19",
        "version" : "2.0"
    },
    "scene" : 0,
    "scenes" : [
        {
            "name" : "Scene",
            "nodes" : [
                0
            ]
        }
    ],
    "nodes" : [
        {
            "mesh" : 0,
            "name" : "Boat.001",
            "rotation" : [
                0.03304577246308327,
                0,
                0,
                0.9994538426399231
            ]
        }
    ],
    "materials" : [
        {
            "doubleSided" : true,
            "name" : "Black",
            "pbrMetallicRoughness" : {
                "baseColorFactor" : [
                    0,
                    0,
                    0,
                    1
                ],
                "metallicFactor" : 0,
                "roughnessFactor" : 0.5
            }
        },
        {
            "doubleSided" : true,
            "name" : "Brown",
            "pbrMetallicRoughness" : {
                "baseColorFactor" : [
                    0.10932880640029907,
                    0.06174163892865181,
                    0.01617075875401497,
                    1
                ],
                "metallicFactor" : 0,
                "roughnessFactor" : 0.5
            }
        }
    ],
    "meshes" : [
        {
            "name" : "Plane.003",
            "primitives" : [
                {
                    "attributes" : {
                        "POSITION" : 0,
                        "NORMAL" : 1,
                        "TEXCOORD_0" : 2
                    },
                    "indices" : 3,
                    "material" : 0
                },
                {
                    "attributes" : {
                        "POSITION" : 4,
                        "NORMAL" : 5,
                        "TEXCOORD_0" : 6
                    },
                    "indices" : 7,
                    "material" : 1
                }
            ]
        }
    ],
    "accessors" : [
        {
            "bufferView" : 0,
            "componentType" : 5126,
            "count" : 136,
            "max" : [
                0.15730255842208862,
                0.0809975415468216,
                0.2761257588863373
            ],
            "min" : [
                -0.15730255842208862,
                -0.16277249157428741,
                -2.3145592212677
            ],
            "type" : "VEC3"
        },
        {
            "bufferView" : 1,
            "componentType" : 5126,
            "count" : 136,
            "type" : "VEC3"
        },
        {
            "bufferView" : 2,
            "componentType" : 5126,
            "count" : 136,
            "type" : "VEC2"
        },
        {
            "bufferView" : 3,
            "componentType" : 5123,
            "count" : 204,
            "type" : "SCALAR"
        },
        {
            "bufferView" : 4,
            "componentType" : 5126,
            "count" : 110,
            "max" : [
                0.08366991579532623,
                0.15414510667324066,
                0.2924661636352539
            ],
            "min" : [
                -0.08366991579532623,
                -3.3839609622955322,
                -0.567378044128418
            ],
            "type" : "VEC3"
        },
        {
            "bufferView" : 5,
            "componentType" : 5126,
            "count" : 110,
            "type" : "VEC3"
        },
        {
            "bufferView" : 6,
            "componentType" : 5126,
            "count" : 110,
            "type" : "VEC2"
        },
        {
            "bufferView" : 7,
            "componentType" : 5123,
            "count" : 168,
            "type" : "SCALAR"
        }
    ],
    "bufferViews" : [
        {
            "buffer" : 0,
            "byteLength" : 1632,
            "byteOffset" : 0
        },
        {
            "buffer" : 0,
            "byteLength" : 1632,
            "byteOffset" : 1632
        },
        {
            "buffer" : 0,
            "byteLength" : 1088,
            "byteOffset" : 3264
        },
        {
            "buffer" : 0,
            "byteLength" : 408,
            "byteOffset" : 4352
        },
        {
            "buffer" : 0,
            "byteLength" : 1320,
            "byteOffset" : 4760
        },
        {
            "buffer" : 0,
            "byteLength" : 1320,
            "byteOffset" : 6080
        },
        {
            "buffer" : 0,
            "byteLength" : 880,
            "byteOffset" : 7400
        },
        {
            "buffer" : 0,
            "byteLength" : 336,
            "byteOffset" : 8280
        }
    ],
    "buffers" : [
        {
            "byteLength" : 8616,
            "uri" : "data:application/octet-stream;base64,"
        }
    ]
}
