# Blender v2.80 (sub 75) OBJ File: 'boat.blend'
# www.blender.org
mtllib fok_flat.mtl
o fok_Plane.002
v 0.000184 5.516456 0.969465
v 0.000184 0.397683 3.034120
v 0.000184 0.671177 1.059439
v 0.000184 0.507085 1.148760
v 0.000184 1.111657 1.051259
v 0.000184 1.552137 1.043080
v 0.000184 1.992617 1.034900
v 0.000184 2.433097 1.026721
v 0.000184 2.873577 1.018542
v 0.000184 3.314057 1.010362
v 0.000184 3.754537 1.002183
v 0.000184 4.195016 0.994004
v 0.000184 4.635497 0.985824
v 0.000184 5.075976 0.977645
v 0.000184 0.407629 2.862724
v 0.000184 0.417574 2.691327
v 0.000184 0.427520 2.519931
v 0.000184 0.437466 2.348535
v 0.000184 0.447411 2.177138
v 0.000184 0.457357 2.005742
v 0.000184 0.467302 1.834346
v 0.000184 0.477248 1.662949
v 0.000184 0.487194 1.491553
v 0.000184 0.497139 1.320156
v 0.000184 5.051113 1.157161
v 0.000184 4.585770 1.344857
v 0.000184 4.120427 1.532553
v 0.000184 3.655084 1.720249
v 0.000184 3.189741 1.907945
v 0.000184 2.724398 2.095641
v 0.000184 2.259055 2.283337
v 0.000184 1.793712 2.471033
v 0.000184 1.328369 2.658729
v 0.000184 0.863026 2.846424
v 0.000184 0.522002 1.140640
v 0.000184 0.536920 1.132520
v 0.000184 0.551837 1.124400
v 0.000184 0.566755 1.116280
v 0.000184 0.581672 1.108159
v 0.000184 0.596590 1.100039
v 0.000184 0.611507 1.091919
v 0.000184 0.626425 1.083799
v 0.000184 0.641342 1.075679
v 0.000184 0.656259 1.067559
v 0.000184 0.832024 2.691353
v 0.000184 1.256419 2.519982
v 0.000184 1.680814 2.348612
v 0.000184 2.105210 2.177241
v 0.000184 2.529605 2.005870
v 0.000184 2.954000 1.834499
v 0.000184 3.378396 1.663128
v 0.000184 3.802791 1.491757
v 0.000184 4.227186 1.320387
v 0.000184 4.651581 1.149016
v 0.000184 0.801022 2.536282
v 0.000184 1.184469 2.381236
v 0.000184 1.567917 2.226190
v 0.000184 1.951364 2.071144
v 0.000184 2.334812 1.916099
v 0.000184 2.718259 1.761053
v 0.000184 3.101707 1.606007
v 0.000184 3.485154 1.450961
v 0.000184 3.868601 1.295916
v 0.000184 4.252049 1.140870
v 0.000184 0.770020 2.381210
v 0.000184 1.112519 2.242490
v 0.000184 1.455019 2.103769
v 0.000184 1.797519 1.965048
v 0.000184 2.140018 1.826327
v 0.000184 2.482518 1.687607
v 0.000184 2.825018 1.548886
v 0.000184 3.167518 1.410165
v 0.000184 3.510017 1.271445
v 0.000184 3.852517 1.132724
v 0.000184 0.739017 2.226139
v 0.000184 1.040569 2.103744
v 0.000184 1.342121 1.981348
v 0.000184 1.643673 1.858952
v 0.000184 1.945225 1.736557
v 0.000184 2.246777 1.614161
v 0.000184 2.548329 1.491765
v 0.000184 2.849881 1.369370
v 0.000184 3.151433 1.246974
v 0.000184 3.452985 1.124578
v 0.000184 0.708015 2.071068
v 0.000184 0.968619 1.964997
v 0.000184 1.229224 1.858927
v 0.000184 1.489828 1.752856
v 0.000184 1.750432 1.646785
v 0.000184 2.011036 1.540715
v 0.000184 2.271640 1.434644
v 0.000184 2.532244 1.328574
v 0.000184 2.792848 1.222503
v 0.000184 3.053452 1.116433
v 0.000184 0.677013 1.915996
v 0.000184 0.896670 1.826251
v 0.000184 1.116326 1.736505
v 0.000184 1.335982 1.646760
v 0.000184 1.555639 1.557014
v 0.000184 1.775295 1.467269
v 0.000184 1.994951 1.377524
v 0.000184 2.214608 1.287778
v 0.000184 2.434264 1.198033
v 0.000184 2.653920 1.108287
v 0.000184 0.646011 1.760925
v 0.000184 0.824720 1.687505
v 0.000184 1.003428 1.614084
v 0.000184 1.182137 1.540664
v 0.000184 1.360845 1.467244
v 0.000184 1.539554 1.393823
v 0.000184 1.718262 1.320403
v 0.000184 1.896971 1.246982
v 0.000184 2.075680 1.173562
v 0.000184 2.254388 1.100142
v 0.000184 0.615009 1.605854
v 0.000184 0.752770 1.548759
v 0.000184 0.890530 1.491663
v 0.000184 1.028291 1.434568
v 0.000184 1.166052 1.377473
v 0.000184 1.303813 1.320377
v 0.000184 1.441574 1.263282
v 0.000184 1.579334 1.206187
v 0.000184 1.717095 1.149091
v 0.000184 1.854856 1.091996
v 0.000184 0.584007 1.450783
v 0.000184 0.680820 1.410012
v 0.000184 0.777633 1.369242
v 0.000184 0.874446 1.328472
v 0.000184 0.971259 1.287701
v 0.000184 1.068072 1.246931
v 0.000184 1.164885 1.206161
v 0.000184 1.261698 1.165390
v 0.000184 1.358511 1.124620
v 0.000184 1.455324 1.083850
v 0.000184 0.553005 1.295711
v 0.000184 0.608870 1.271266
v 0.000184 0.664735 1.246821
v 0.000184 0.720600 1.222376
v 0.000184 0.776465 1.197930
v 0.000184 0.832331 1.173485
v 0.000184 0.888196 1.149040
v 0.000184 0.944061 1.124595
v 0.000184 0.999926 1.100150
v 0.000184 1.055792 1.075705
vt 0.909091 0.909091
vt 1.000000 0.909091
vt 1.000000 1.000000
vt 0.909091 1.000000
vt 0.909091 0.000000
vt 1.000000 0.000000
vt 1.000000 0.090909
vt 0.909091 0.090909
vt 1.000000 0.181818
vt 0.909091 0.181818
vt 1.000000 0.272727
vt 0.909091 0.272727
vt 1.000000 0.363636
vt 0.909091 0.363636
vt 1.000000 0.454545
vt 0.909091 0.454546
vt 1.000000 0.545455
vt 0.909091 0.545454
vt 1.000000 0.636364
vt 0.909091 0.636364
vt 1.000000 0.727273
vt 0.909091 0.727273
vt 1.000000 0.818182
vt 0.909091 0.818182
vt 0.000000 0.818182
vt 0.090909 0.818182
vt 0.090909 0.909091
vt 0.000000 0.909091
vt 0.181818 0.818182
vt 0.181818 0.909091
vt 0.272727 0.818182
vt 0.272727 0.909091
vt 0.363636 0.818182
vt 0.363636 0.909091
vt 0.454545 0.818182
vt 0.454545 0.909091
vt 0.545455 0.818182
vt 0.545455 0.909091
vt 0.636364 0.818182
vt 0.636364 0.909091
vt 0.727273 0.818182
vt 0.727273 0.909091
vt 0.818182 0.818182
vt 0.818182 0.909091
vt 0.000000 0.727273
vt 0.090909 0.727273
vt 0.181818 0.727273
vt 0.272727 0.727273
vt 0.363636 0.727273
vt 0.454545 0.727273
vt 0.545455 0.727273
vt 0.636364 0.727273
vt 0.727273 0.727273
vt 0.818182 0.727273
vt 0.000000 0.636364
vt 0.090909 0.636364
vt 0.181818 0.636364
vt 0.272727 0.636364
vt 0.363636 0.636364
vt 0.454545 0.636364
vt 0.545454 0.636364
vt 0.636364 0.636364
vt 0.727273 0.636364
vt 0.818182 0.636364
vt 0.000000 0.545455
vt 0.090909 0.545455
vt 0.181818 0.545455
vt 0.272727 0.545455
vt 0.363636 0.545455
vt 0.454545 0.545455
vt 0.545455 0.545455
vt 0.636364 0.545455
vt 0.727273 0.545455
vt 0.818182 0.545455
vt 0.000000 0.454545
vt 0.090909 0.454545
vt 0.181818 0.454545
vt 0.272727 0.454545
vt 0.363636 0.454545
vt 0.454545 0.454545
vt 0.545455 0.454545
vt 0.636364 0.454545
vt 0.727273 0.454546
vt 0.818182 0.454545
vt 0.000000 0.363636
vt 0.090909 0.363636
vt 0.181818 0.363636
vt 0.272727 0.363636
vt 0.363636 0.363636
vt 0.454545 0.363636
vt 0.545454 0.363636
vt 0.636364 0.363636
vt 0.727273 0.363636
vt 0.818182 0.363636
vt 0.000000 0.272727
vt 0.090909 0.272727
vt 0.181818 0.272727
vt 0.272727 0.272727
vt 0.363636 0.272727
vt 0.454545 0.272727
vt 0.545454 0.272727
vt 0.636363 0.272727
vt 0.727273 0.272727
vt 0.818182 0.272727
vt 0.000000 0.181818
vt 0.090909 0.181818
vt 0.181818 0.181818
vt 0.272727 0.181818
vt 0.363636 0.181818
vt 0.454545 0.181818
vt 0.545455 0.181818
vt 0.636364 0.181818
vt 0.727273 0.181818
vt 0.818182 0.181818
vt 0.000000 0.090909
vt 0.090909 0.090909
vt 0.181818 0.090909
vt 0.272727 0.090909
vt 0.363636 0.090909
vt 0.454545 0.090909
vt 0.545454 0.090909
vt 0.636364 0.090909
vt 0.727273 0.090909
vt 0.818182 0.090909
vt 0.000000 0.000000
vt 0.090909 0.000000
vt 0.181818 0.000000
vt 0.272727 0.000000
vt 0.363636 0.000000
vt 0.454545 0.000000
vt 0.545455 0.000000
vt 0.636364 0.000000
vt 0.727273 0.000000
vt 0.818182 0.000000
vt 0.090909 1.000000
vt 0.000000 1.000000
vt 0.181818 1.000000
vt 0.272727 1.000000
vt 0.363636 1.000000
vt 0.454545 1.000000
vt 0.545455 1.000000
vt 0.636364 1.000000
vt 0.727273 1.000000
vt 0.818182 1.000000
vn 1.0000 -0.0000 0.0000
usemtl None
s off
f 135/1/1 24/2/1 4/3/1 35/4/1
f 34/5/1 2/6/1 15/7/1 45/8/1
f 45/8/1 15/7/1 16/9/1 55/10/1
f 55/10/1 16/9/1 17/11/1 65/12/1
f 65/12/1 17/11/1 18/13/1 75/14/1
f 75/14/1 18/13/1 19/15/1 85/16/1
f 85/16/1 19/15/1 20/17/1 95/18/1
f 95/18/1 20/17/1 21/19/1 105/20/1
f 105/20/1 21/19/1 22/21/1 115/22/1
f 115/22/1 22/21/1 23/23/1 125/24/1
f 125/24/1 23/23/1 24/2/1 135/1/1
f 6/25/1 134/26/1 144/27/1 5/28/1
f 134/26/1 133/29/1 143/30/1 144/27/1
f 133/29/1 132/31/1 142/32/1 143/30/1
f 132/31/1 131/33/1 141/34/1 142/32/1
f 131/33/1 130/35/1 140/36/1 141/34/1
f 130/35/1 129/37/1 139/38/1 140/36/1
f 129/37/1 128/39/1 138/40/1 139/38/1
f 128/39/1 127/41/1 137/42/1 138/40/1
f 127/41/1 126/43/1 136/44/1 137/42/1
f 126/43/1 125/24/1 135/1/1 136/44/1
f 7/45/1 124/46/1 134/26/1 6/25/1
f 124/46/1 123/47/1 133/29/1 134/26/1
f 123/47/1 122/48/1 132/31/1 133/29/1
f 122/48/1 121/49/1 131/33/1 132/31/1
f 121/49/1 120/50/1 130/35/1 131/33/1
f 120/50/1 119/51/1 129/37/1 130/35/1
f 119/51/1 118/52/1 128/39/1 129/37/1
f 118/52/1 117/53/1 127/41/1 128/39/1
f 117/53/1 116/54/1 126/43/1 127/41/1
f 116/54/1 115/22/1 125/24/1 126/43/1
f 8/55/1 114/56/1 124/46/1 7/45/1
f 114/56/1 113/57/1 123/47/1 124/46/1
f 113/57/1 112/58/1 122/48/1 123/47/1
f 112/58/1 111/59/1 121/49/1 122/48/1
f 111/59/1 110/60/1 120/50/1 121/49/1
f 110/60/1 109/61/1 119/51/1 120/50/1
f 109/61/1 108/62/1 118/52/1 119/51/1
f 108/62/1 107/63/1 117/53/1 118/52/1
f 107/63/1 106/64/1 116/54/1 117/53/1
f 106/64/1 105/20/1 115/22/1 116/54/1
f 9/65/1 104/66/1 114/56/1 8/55/1
f 104/66/1 103/67/1 113/57/1 114/56/1
f 103/67/1 102/68/1 112/58/1 113/57/1
f 102/68/1 101/69/1 111/59/1 112/58/1
f 101/69/1 100/70/1 110/60/1 111/59/1
f 100/70/1 99/71/1 109/61/1 110/60/1
f 99/71/1 98/72/1 108/62/1 109/61/1
f 98/72/1 97/73/1 107/63/1 108/62/1
f 97/73/1 96/74/1 106/64/1 107/63/1
f 96/74/1 95/18/1 105/20/1 106/64/1
f 10/75/1 94/76/1 104/66/1 9/65/1
f 94/76/1 93/77/1 103/67/1 104/66/1
f 93/77/1 92/78/1 102/68/1 103/67/1
f 92/78/1 91/79/1 101/69/1 102/68/1
f 91/79/1 90/80/1 100/70/1 101/69/1
f 90/80/1 89/81/1 99/71/1 100/70/1
f 89/81/1 88/82/1 98/72/1 99/71/1
f 88/82/1 87/83/1 97/73/1 98/72/1
f 87/83/1 86/84/1 96/74/1 97/73/1
f 86/84/1 85/16/1 95/18/1 96/74/1
f 11/85/1 84/86/1 94/76/1 10/75/1
f 84/86/1 83/87/1 93/77/1 94/76/1
f 83/87/1 82/88/1 92/78/1 93/77/1
f 82/88/1 81/89/1 91/79/1 92/78/1
f 81/89/1 80/90/1 90/80/1 91/79/1
f 80/90/1 79/91/1 89/81/1 90/80/1
f 79/91/1 78/92/1 88/82/1 89/81/1
f 78/92/1 77/93/1 87/83/1 88/82/1
f 77/93/1 76/94/1 86/84/1 87/83/1
f 76/94/1 75/14/1 85/16/1 86/84/1
f 12/95/1 74/96/1 84/86/1 11/85/1
f 74/96/1 73/97/1 83/87/1 84/86/1
f 73/97/1 72/98/1 82/88/1 83/87/1
f 72/98/1 71/99/1 81/89/1 82/88/1
f 71/99/1 70/100/1 80/90/1 81/89/1
f 70/100/1 69/101/1 79/91/1 80/90/1
f 69/101/1 68/102/1 78/92/1 79/91/1
f 68/102/1 67/103/1 77/93/1 78/92/1
f 67/103/1 66/104/1 76/94/1 77/93/1
f 66/104/1 65/12/1 75/14/1 76/94/1
f 13/105/1 64/106/1 74/96/1 12/95/1
f 64/106/1 63/107/1 73/97/1 74/96/1
f 63/107/1 62/108/1 72/98/1 73/97/1
f 62/108/1 61/109/1 71/99/1 72/98/1
f 61/109/1 60/110/1 70/100/1 71/99/1
f 60/110/1 59/111/1 69/101/1 70/100/1
f 59/111/1 58/112/1 68/102/1 69/101/1
f 58/112/1 57/113/1 67/103/1 68/102/1
f 57/113/1 56/114/1 66/104/1 67/103/1
f 56/114/1 55/10/1 65/12/1 66/104/1
f 14/115/1 54/116/1 64/106/1 13/105/1
f 54/116/1 53/117/1 63/107/1 64/106/1
f 53/117/1 52/118/1 62/108/1 63/107/1
f 52/118/1 51/119/1 61/109/1 62/108/1
f 51/119/1 50/120/1 60/110/1 61/109/1
f 50/120/1 49/121/1 59/111/1 60/110/1
f 49/121/1 48/122/1 58/112/1 59/111/1
f 48/122/1 47/123/1 57/113/1 58/112/1
f 47/123/1 46/124/1 56/114/1 57/113/1
f 46/124/1 45/8/1 55/10/1 56/114/1
f 1/125/1 25/126/1 54/116/1 14/115/1
f 25/126/1 26/127/1 53/117/1 54/116/1
f 26/127/1 27/128/1 52/118/1 53/117/1
f 27/128/1 28/129/1 51/119/1 52/118/1
f 28/129/1 29/130/1 50/120/1 51/119/1
f 29/130/1 30/131/1 49/121/1 50/120/1
f 30/131/1 31/132/1 48/122/1 49/121/1
f 31/132/1 32/133/1 47/123/1 48/122/1
f 32/133/1 33/134/1 46/124/1 47/123/1
f 33/134/1 34/5/1 45/8/1 46/124/1
f 5/28/1 144/27/1 44/135/1 3/136/1
f 144/27/1 143/30/1 43/137/1 44/135/1
f 143/30/1 142/32/1 42/138/1 43/137/1
f 142/32/1 141/34/1 41/139/1 42/138/1
f 141/34/1 140/36/1 40/140/1 41/139/1
f 140/36/1 139/38/1 39/141/1 40/140/1
f 139/38/1 138/40/1 38/142/1 39/141/1
f 138/40/1 137/42/1 37/143/1 38/142/1
f 137/42/1 136/44/1 36/144/1 37/143/1
f 136/44/1 135/1/1 35/4/1 36/144/1
