# Blender v2.82 (sub 7) OBJ File: 'przystan1.blend'
# www.blender.org
mtllib island.mtl
o Island_Plane
v -17.904249 -2.361335 6.133449
v -17.691847 -4.739847 11.065920
v -11.681850 4.132772 7.318656
v -10.152042 0.885381 11.142435
v -12.973339 -5.548435 14.761995
v -11.245324 2.732663 9.584938
v -11.456718 -4.681962 13.665928
v -10.463813 -5.418756 14.968860
v -10.511135 -2.819912 12.808400
v -9.058760 -0.961900 12.699932
v -17.352995 0.288710 3.249905
v -15.838634 -1.080992 8.822079
v -12.100565 5.534236 4.685387
v -0.116961 -1.180641 -19.284557
v -13.645372 1.801868 7.649992
v -16.666159 1.064047 -3.981621
v -13.584216 2.989388 -7.529368
v -16.699898 0.111961 6.322519
v -10.813881 5.443505 -7.461177
v -5.483903 2.369574 -14.296236
v -7.103948 2.167749 11.663264
v -16.514641 -1.246885 -7.200150
v -12.391888 0.434268 -15.215081
v -6.228105 0.867914 -17.315044
v -11.692644 4.036160 -11.940805
v -17.625132 -3.064819 -11.635938
v -3.192573 4.613465 -7.055182
v 0.852432 -6.004227 -18.633257
v 11.847695 -1.016817 12.906177
v -17.962475 0.844578 -1.271792
v 7.554778 -4.438721 -14.409929
v 8.723194 -0.177945 13.400913
v 10.442848 1.754005 11.992779
v 10.844532 5.937359 5.860225
v 7.190804 7.228149 8.966627
v 3.737859 4.762791 3.398907
v 1.485763 7.202512 6.784310
v 12.373779 -1.166497 0.512371
v -3.485705 -1.714867 -19.774509
v 16.826498 -5.717004 -1.290142
v 14.988959 0.245370 2.816383
v 11.320564 -2.619092 -2.895202
v 13.604411 5.236058 7.162195
v 4.380330 1.127128 12.742028
v 16.101892 -0.705955 8.985780
v 17.355671 -2.032264 5.771829
v 5.513563 1.046795 12.095243
v 13.408280 1.738256 10.804491
v -19.738979 -7.539751 16.337236
v 19.503031 -7.328271 17.410717
v -1.298070 1.360206 -11.029234
v -20.480621 -5.894064 -0.959870
v -20.296015 -5.294715 13.718287
v -16.216776 -6.441439 17.038925
v -10.855378 -6.975784 17.187328
v 19.053583 -6.121927 8.591962
v 18.618080 -8.034122 -3.217096
v -17.565645 -8.477380 -19.876741
v 1.600875 1.637601 -10.846782
v -9.990376 -6.541366 -19.373672
v -10.243155 -3.274898 -18.186211
v -18.074493 -5.514516 -8.052833
v 16.823271 -9.042295 -10.590373
v 16.019558 -8.179346 -18.392712
v -14.084743 -2.377448 -15.611094
v -18.663580 -6.050113 13.375103
v 3.222103 -1.129583 -18.164808
v -19.640556 -6.228532 6.564991
v -4.149556 10.743279 2.694330
v 5.481156 -0.248903 -5.833002
v -1.873229 3.900632 -3.968814
v 11.390777 -5.318655 -6.420953
v 4.074519 -6.894159 -19.530943
v -19.632513 -5.499111 1.870002
v 3.547946 1.241355 -2.690869
v -15.091300 -4.121086 12.336663
v -16.252617 -6.374426 -14.252893
v -1.459383 1.229879 -15.895279
v 5.153460 0.196518 -9.630136
v 15.034914 -3.399886 0.636812
v -19.849134 -5.015995 9.357265
v -18.891750 -1.068191 1.030362
v -20.292395 -5.358608 9.795176
v -12.877199 6.047352 -1.109182
v -13.210462 -0.385712 10.628335
v -19.638329 -7.374780 -12.064567
v -18.973831 -6.091161 2.798496
v -15.586306 2.398803 0.584522
v -2.626860 -6.846541 18.308615
v 16.191446 -3.825191 12.605769
v -4.937039 3.426064 -11.072832
v 6.591250 2.749484 1.737576
v -2.345521 8.298669 -0.936912
v -20.393930 -6.550952 -5.262311
v 10.661868 7.381116 8.967885
v -13.074587 6.497420 1.467801
v 10.907946 3.342115 1.675663
v -8.496890 7.110491 -6.401623
v -20.885324 -7.544107 -5.309455
v 16.171415 2.631664 5.244133
v 5.114704 -7.878987 18.611071
v -8.670932 3.504814 -13.720796
v -5.242583 7.208010 9.004005
v -17.709381 -9.736197 -18.178629
v 13.365263 -7.643892 -11.560547
v 7.132749 3.394197 11.768446
v -11.239263 7.325695 3.222669
v -18.188211 -2.952958 -3.412938
v 10.787814 -6.248995 -19.056261
v 9.078892 -2.249128 -6.856247
v -6.840397 5.624718 -9.698581
v 14.379324 -5.229242 -2.683420
v -3.275140 -6.363317 -19.771811
v -0.534271 7.980442 11.715327
v 18.507280 -7.481550 0.151378
v -20.553612 -8.260114 -8.767529
v -15.130935 1.766226 -10.911105
v -14.878312 -8.922291 -18.768995
v -12.497676 4.910429 -5.526530
v 10.246937 -8.218778 18.211294
v 8.757032 -0.536378 -1.465432
v -6.492869 8.534382 5.599692
v -9.977830 6.188423 -10.571166
v 0.712829 2.211424 -7.627677
v 10.313640 -3.750086 15.033380
v 16.970198 -8.922496 -14.360384
v 6.816454 -1.183965 -12.592691
v 3.809551 7.198202 8.981076
v -14.510738 3.015225 4.534434
v 4.951108 -4.943945 16.502981
v -4.917384 -1.526814 14.778256
v 0.163142 -3.196025 16.826620
v 5.823608 -6.339339 -17.244287
v 14.498022 -6.598664 17.596142
v 17.295774 -8.632668 -6.673817
v 10.118117 -4.719265 -10.299760
v 13.837356 -8.163569 -6.037728
v -9.770887 8.339468 -3.734399
v -4.897636 7.629941 -4.200454
v 8.097040 -8.268887 18.707712
v 18.344423 -6.833689 3.763772
v 11.972664 -5.427191 -15.428540
v 7.495128 5.440019 5.596356
v -19.729376 -8.970659 -14.257369
v 1.306332 3.101956 0.115909
v -18.100391 -3.190535 9.443301
v -7.822135 -5.242838 14.995193
v -10.016808 9.428482 1.405798
v 0.437200 5.461185 3.103809
v -18.784409 -5.104157 4.699874
v -9.290512 5.862312 8.548271
v -1.849187 8.112803 2.894922
v -17.620733 -9.650371 -16.487446
v -5.524370 9.957133 -0.734662
v -9.690392 8.053246 4.836340
v 2.488922 1.063777 -14.065886
v -2.011335 8.771386 6.167989
v 7.217575 -5.104612 15.209410
v -5.836325 -6.716425 17.601055
vt 0.000000 0.000000
vt 0.000000 0.000000
vt 0.000000 0.000000
vt 0.000000 0.000000
vt 0.000000 0.000000
vt 0.000000 0.000000
vt 0.000000 0.000000
vt 0.000000 0.000000
vt 0.000000 0.000000
vt 0.000000 0.000000
vt 0.000000 0.000000
vt 0.000000 0.000000
vt 0.000000 0.000000
vt 0.000000 0.000000
vt 0.000000 0.000000
vt 0.000000 0.000000
vt 0.000000 0.000000
vt 0.000000 0.000000
vt 0.000000 0.000000
vt 0.000000 0.000000
vt 0.000000 0.000000
vt 0.000000 0.000000
vt 0.000000 0.000000
vt 0.000000 0.000000
vt 0.000000 0.000000
vt 0.000000 0.000000
vt 0.000000 0.000000
vt 0.000000 0.000000
vt 0.000000 0.000000
vt 0.000000 0.000000
vt 0.000000 0.000000
vt 0.000000 0.000000
vt 0.000000 0.000000
vt 0.000000 0.000000
vt 0.000000 0.000000
vt 0.000000 0.000000
vt 0.000000 0.000000
vt 0.000000 0.000000
vt 0.000000 0.000000
vt 0.000000 0.000000
vt 0.000000 0.000000
vt 0.000000 0.000000
vt 0.000000 0.000000
vt 0.000000 0.000000
vt 0.000000 0.000000
vt 0.000000 0.000000
vt 0.000000 0.000000
vt 0.000000 0.000000
vt 0.000000 0.000000
vt 0.000000 0.000000
vt 0.000000 0.000000
vt 0.000000 0.000000
vt 0.000000 0.000000
vt 0.000000 0.000000
vt 0.000000 0.000000
vt 0.000000 0.000000
vt 0.000000 0.000000
vt 0.000000 0.000000
vt 0.000000 0.000000
vt 0.000000 0.000000
vt 0.000000 0.000000
vt 0.000000 0.000000
vt 0.000000 0.000000
vt 0.000000 0.000000
vt 0.000000 0.000000
vt 0.000000 0.000000
vt 0.000000 0.000000
vt 0.000000 0.000000
vt 0.000000 0.000000
vt 0.000000 0.000000
vt 0.000000 0.000000
vt 0.000000 0.000000
vt 0.000000 0.000000
vt 0.000000 0.000000
vt 0.000000 0.000000
vt 0.000000 0.000000
vt 0.000000 0.000000
vt 0.000000 0.000000
vt 0.000000 0.000000
vt 0.000000 0.000000
vt 0.000000 0.000000
vt 0.000000 0.000000
vt 0.000000 0.000000
vt 0.000000 0.000000
vt 0.000000 0.000000
vt 0.000000 0.000000
vt 0.000000 0.000000
vt 0.000000 0.000000
vt 0.000000 0.000000
vt 0.000000 0.000000
vt 0.000000 0.000000
vt 0.000000 0.000000
vt 0.000000 0.000000
vt 0.000000 0.000000
vt 0.000000 0.000000
vt 0.000000 0.000000
vt 0.000000 0.000000
vt 0.000000 0.000000
vt 0.000000 0.000000
vt 0.000000 0.000000
vt 0.000000 0.000000
vt 0.000000 0.000000
vt 0.000000 0.000000
vt 0.000000 0.000000
vt 0.000000 0.000000
vt 0.000000 0.000000
vt 0.000000 0.000000
vt 0.000000 0.000000
vt 0.000000 0.000000
vt 0.000000 0.000000
vt 0.000000 0.000000
vt 0.000000 0.000000
vt 0.000000 0.000000
vt 0.000000 0.000000
vt 0.000000 0.000000
vt 0.000000 0.000000
vt 0.000000 0.000000
vt 0.000000 0.000000
vt 0.000000 0.000000
vt 0.000000 0.000000
vt 0.000000 0.000000
vt 0.000000 0.000000
vt 0.000000 0.000000
vt 0.000000 0.000000
vt 0.000000 0.000000
vt 0.000000 0.000000
vt 0.000000 0.000000
vt 0.000000 0.000000
vt 0.000000 0.000000
vt 0.000000 0.000000
vt 0.000000 0.000000
vt 0.000000 0.000000
vt 0.000000 0.000000
vt 0.000000 0.000000
vt 0.000000 0.000000
vt 0.000000 0.000000
vt 0.000000 0.000000
vt 0.000000 0.000000
vt 0.000000 0.000000
vt 0.000000 0.000000
vt 0.000000 0.000000
vt 0.000000 0.000000
vt 0.000000 0.000000
vt 0.000000 0.000000
vt 0.000000 0.000000
vt 0.000000 0.000000
vt 0.000000 0.000000
vt 0.000000 0.000000
vt 0.000000 0.000000
vt 0.000000 0.000000
vt 0.000000 0.000000
vt 0.090909 0.000000
vt 0.000000 0.090909
vt 0.000000 0.000000
vt 0.000000 0.000000
vt 0.000000 0.000000
vt 0.000000 0.000000
vt 0.000000 0.000000
vt 0.000000 0.000000
vt 0.000000 0.000000
vt 0.000000 0.000000
vn -0.2827 0.9586 -0.0338
vn -0.8056 0.5699 0.1623
vn -0.6181 0.7073 -0.3431
vn -0.9136 0.3087 -0.2647
vn -0.8987 0.3742 -0.2286
vn -0.8902 0.4541 0.0368
vn -0.2805 0.6730 -0.6844
vn -0.2830 0.6747 -0.6817
vn -0.4503 0.3846 -0.8058
vn -0.0811 0.9771 -0.1966
vn 0.3916 0.9184 -0.0557
vn 0.2650 0.0114 -0.9642
vn 0.1075 0.9879 -0.1118
vn -0.0420 0.8063 -0.5901
vn 0.7984 0.5768 -0.1728
vn -0.9000 0.4041 0.1634
vn 0.7594 0.6327 -0.1514
vn 0.3182 -0.0638 -0.9459
vn -0.5684 0.6111 -0.5509
vn 0.4278 0.7638 -0.4833
vn 0.1340 0.9347 -0.3291
vn 0.0691 0.8863 -0.4579
vn -0.7242 0.6729 -0.1508
vn 0.2604 0.9035 -0.3403
vn 0.2472 0.9239 -0.2921
vn 0.5620 0.8243 -0.0686
vn 0.5258 0.7223 -0.4492
vn 0.2172 0.8516 -0.4771
vn -0.2264 -0.0108 -0.9740
vn -0.6298 0.0790 -0.7727
vn 0.2341 0.8740 -0.4258
vn -0.8145 0.3620 0.4534
vn -0.9407 0.3232 0.1030
vn -0.0646 0.3365 -0.9395
vn -0.5480 0.6153 -0.5666
vn 0.7631 0.5204 -0.3833
vn -0.3134 0.4765 -0.8214
vn -0.1086 0.8030 0.5860
vn -0.3032 0.4683 -0.8299
vn 0.1588 -0.1007 -0.9822
vn -0.4940 0.2630 -0.8287
vn -0.7388 0.6734 -0.0243
vn -0.3299 0.7697 -0.5465
vn -0.5793 0.3441 -0.7390
vn -0.5595 0.8277 -0.0435
vn 0.1590 0.9247 -0.3460
vn 0.4908 0.8621 -0.1262
vn -0.1860 0.8648 -0.4663
vn 0.4060 0.9136 0.0222
vn 0.0928 0.9244 -0.3699
vn -0.6631 0.7485 0.0010
vn 0.4978 0.8653 0.0586
vn -0.4217 0.7288 -0.5395
vn 0.2666 -0.0370 -0.9631
vn 0.1642 0.8334 -0.5277
vn 0.4373 0.8968 0.0675
vn -0.5973 0.6070 -0.5242
vn 0.7167 0.5605 -0.4149
vn 0.5226 0.7289 -0.4423
vn -0.5060 0.8366 -0.2098
vn 0.4337 0.7503 -0.4990
vn -0.7492 0.1908 -0.6343
vn 0.2055 0.7795 -0.5917
vn -0.6526 0.7432 0.1475
vn 0.3829 0.7618 -0.5226
vn 0.3864 0.9082 -0.1610
vn -0.9044 0.3857 -0.1826
vn 0.1341 0.7543 -0.6427
vn 0.2189 0.7958 -0.5647
vn -0.1214 0.8273 -0.5484
vn -0.1012 0.6594 -0.7449
vn -0.2655 0.5248 0.8088
vn -0.0263 0.5901 0.8069
vn 0.8432 0.2837 -0.4566
vn 0.4502 0.7841 -0.4272
vn 0.7543 0.6514 -0.0821
vn 0.3368 0.4356 0.8347
vn -0.0842 0.8462 -0.5261
vn 0.4969 0.3647 -0.7875
vn 0.4261 0.7699 -0.4752
vn 0.0945 0.9742 -0.2048
vn 0.1124 0.9868 -0.1168
vn 0.3630 0.6715 -0.6460
vn -0.8849 0.4147 0.2120
vn -0.3323 0.3511 0.8754
vn 0.3597 0.9092 -0.2099
vn -0.3798 0.3469 0.8576
vn 0.9303 0.2649 0.2536
vn -0.4820 0.5534 0.6793
vn -0.7093 0.6999 0.0839
vn -0.7535 0.5806 -0.3084
vn -0.5296 0.4742 0.7033
vn -0.3635 0.8759 0.3174
vn -0.0888 0.8226 0.5617
vn 0.8104 0.3602 -0.4622
vn -0.3701 0.8662 0.3357
vn 0.2298 0.8155 0.5312
vn 0.4141 0.8743 -0.2531
vn -0.9597 0.2728 0.0673
vn 0.2228 0.8552 -0.4681
vn 0.4286 0.4676 -0.7731
vn -0.6619 0.6179 0.4245
vn -0.7171 0.6931 0.0734
vn -0.6438 0.6791 0.3528
vn -0.8578 0.4102 -0.3098
vn 0.5271 0.4828 0.6993
vn 0.3907 0.7970 -0.4605
vn -0.6299 0.6006 0.4924
vn -0.3365 0.4826 0.8086
vn -0.8862 0.4413 -0.1408
vn -0.7997 0.6002 0.0137
vn -0.5730 0.6973 0.4307
vn -0.8400 -0.4428 0.3135
vn -0.8579 0.3329 0.3913
vn -0.3820 0.3486 0.8559
vn -0.6830 0.7088 -0.1761
vn -0.3402 0.4803 0.8084
vn -0.8265 0.5405 -0.1577
vn -0.2192 0.7451 0.6299
vn -0.2877 0.6668 -0.6875
vn -0.6619 0.6719 0.3323
vn -0.6668 0.6281 0.4010
vn -0.7232 0.6635 0.1919
vn -0.7692 0.5013 -0.3962
vn -0.6649 0.6104 0.4306
vn -0.4578 0.8767 -0.1480
vn -0.5204 0.7014 0.4872
vn -0.7047 0.6701 -0.2330
vn 0.4937 0.8687 -0.0396
vn 0.8006 0.3091 -0.5134
vn 0.5496 0.4988 -0.6702
vn 0.4949 0.3644 -0.7889
vn -0.6637 0.6106 0.4319
vn 0.1912 0.8815 -0.4316
vn 0.2462 0.9672 -0.0620
vn 0.7686 0.6117 -0.1873
vn -0.6886 0.4418 -0.5750
vn 0.1758 0.4729 0.8634
vn -0.2282 0.5005 0.8351
vn 0.4156 0.7129 -0.5649
vn -0.6730 0.6793 0.2927
vn -0.0617 0.8479 0.5265
vn 0.2930 0.7844 -0.5467
vn -0.6373 0.5737 0.5145
vn 0.0980 0.9208 -0.3775
vn -0.1557 0.5407 0.8267
vn -0.2809 0.8813 0.3800
vn -0.6976 0.6771 -0.2342
vn -0.7051 0.6625 -0.2530
vn -0.8914 0.4451 -0.0859
vn 0.6788 0.7314 0.0655
vn 0.4559 0.4993 0.7368
vn -0.7036 0.6146 -0.3566
vn -0.4921 0.6772 -0.5471
vn 0.1422 0.8439 0.5173
vn 0.4139 0.8370 -0.3579
vn -0.5111 0.3309 0.7933
vn -0.2275 0.4974 0.8371
vn 0.7582 0.6485 -0.0668
vn 0.0552 0.9981 -0.0286
vn -0.6792 0.7108 -0.1831
vn -0.2732 0.9395 0.2067
vn -0.2383 0.8561 0.4586
vn -0.6672 0.6810 -0.3017
vn 0.7784 0.4313 0.4561
vn 0.5210 0.7879 -0.3284
vn 0.3860 0.7966 -0.4651
vn 0.2866 0.8721 0.3966
vn -0.8789 0.4432 -0.1761
vn -0.8756 0.2756 -0.3966
vn -0.8240 0.5574 -0.1017
vn -0.1851 0.9714 -0.1485
vn 0.0691 0.8340 -0.5475
vn -0.9550 0.1867 -0.2304
vn -0.3272 0.8336 0.4450
vn -0.2461 0.8229 0.5122
vn -0.0981 0.9146 0.3924
vn -0.2133 0.9536 -0.2122
vn -0.1128 0.8327 0.5421
vn 0.6397 0.4816 -0.5990
vn 0.4552 0.8861 -0.0873
vn 0.4882 0.8657 -0.1102
vn -0.3410 0.6767 0.6526
vn -0.1002 0.9001 -0.4240
vn -0.1104 0.3720 0.9216
vn 0.8060 0.5242 0.2748
vn -0.0098 0.8830 -0.4693
vn 0.9462 0.2696 -0.1787
vn 0.7488 0.5112 0.4220
vn 0.9240 0.3008 0.2363
vn 0.7474 0.4888 0.4499
vn 0.5934 0.6578 -0.4638
vn 0.6879 0.5046 0.5216
vn 0.3463 0.4474 0.8246
vn 0.5775 0.6615 -0.4785
vn 0.8244 0.1475 -0.5465
vn 0.7767 0.5988 -0.1951
vn 0.5349 0.8140 -0.2267
vn 0.5415 0.4525 -0.7085
vn 0.5424 0.5869 -0.6011
vn 0.0690 0.9141 -0.3997
vn 0.2271 0.7909 -0.5683
vn -0.0387 0.8813 -0.4711
vn -0.0018 0.5900 0.8074
vn 0.3887 0.8441 -0.3693
vn 0.5210 0.8532 -0.0257
vn 0.3418 0.4399 0.8305
vn 0.1697 0.4615 0.8708
vn 0.3353 0.4439 0.8309
vn 0.3582 0.8541 -0.3772
vn 0.1519 0.9521 -0.2653
vn 0.4205 0.7900 -0.4463
vn -0.9449 0.2062 0.2544
vn 0.4201 0.7740 -0.4737
vn -0.6911 0.4908 -0.5306
vn -0.6625 0.5734 0.4819
vn -0.5936 0.8041 0.0330
vn -0.8970 0.3770 -0.2307
vn -0.8568 0.4913 0.1566
vn -0.5286 0.6808 0.5071
vn -0.6821 0.6304 0.3705
vn -0.7192 0.6829 0.1285
vn 0.7785 0.4312 -0.4561
vn 0.5700 0.7636 -0.3034
vn -0.5749 0.6171 0.5372
vn 0.2121 0.4174 0.8836
vn 0.3867 0.9189 0.0782
vn 0.0980 0.9944 0.0408
vn -0.2599 0.6827 0.6829
vn 0.1724 0.5692 0.8040
vn 0.7536 0.6540 -0.0659
vn -0.5521 0.4717 0.6875
vn 0.7542 0.6514 -0.0828
vn 0.4462 0.5384 0.7149
vn 0.8212 0.5392 -0.1869
vn -0.1029 0.5775 0.8099
vn 0.3640 0.9304 0.0437
vn 0.7577 0.6460 -0.0925
vn 0.2616 0.5726 0.7770
vn 0.0127 0.3678 0.9298
vn 0.3606 0.9310 0.0568
vn 0.4688 0.8612 -0.1965
vn 0.3634 0.8760 -0.3171
vn -0.1681 0.4938 0.8532
vn 0.6443 0.7402 0.1923
vn 0.7530 0.6513 -0.0938
vn -0.1841 0.4872 0.8536
vn 0.7522 0.4269 -0.5020
vn 0.6718 0.7406 0.0123
vn 0.0766 0.7490 0.6582
usemtl None
s off
f 118/1/1 104/2/1 153/3/1
f 17/4/2 117/5/2 22/6/2
f 17/4/3 119/7/3 19/8/3
f 16/9/4 22/6/4 108/10/4
f 22/6/5 62/11/5 108/10/5
f 117/5/6 26/12/6 22/6/6
f 23/13/7 102/14/7 24/15/7
f 23/13/8 25/16/8 102/14/8
f 23/13/9 61/17/9 65/18/9
f 59/19/10 156/20/10 51/21/10
f 59/19/11 124/22/11 79/23/11
f 28/24/12 113/25/12 39/26/12
f 37/27/13 114/28/13 128/29/13
f 14/30/14 39/26/14 78/31/14
f 110/32/15 72/33/15 136/34/15
f 86/35/16 62/11/16 26/12/16
f 72/33/17 137/36/17 136/34/17
f 14/30/18 67/37/18 28/24/18
f 23/13/19 117/5/19 25/16/19
f 37/27/20 149/38/20 157/39/20
f 20/40/21 91/41/21 78/31/21
f 24/15/22 20/40/22 78/31/22
f 17/4/23 123/42/23 25/16/23
f 91/41/24 20/40/24 102/14/24
f 111/43/25 123/42/25 98/44/25
f 127/45/26 79/23/26 110/32/26
f 111/43/27 139/46/27 27/47/27
f 20/40/28 24/15/28 102/14/28
f 61/17/29 39/26/29 113/25/29
f 60/48/30 77/49/30 65/18/30
f 67/37/31 78/31/31 156/20/31
f 1/50/32 12/51/32 18/52/32
f 22/6/33 26/12/33 62/11/33
f 61/17/34 113/25/34 60/48/34
f 86/35/35 77/49/35 153/3/35
f 72/33/36 110/32/36 42/53/36
f 61/17/37 23/13/37 24/15/37
f 118/1/38 58/54/38 104/2/38
f 61/17/39 24/15/39 39/26/39
f 39/26/40 14/30/40 28/24/40
f 61/17/41 60/48/41 65/18/41
f 86/35/42 116/55/42 62/11/42
f 86/35/43 153/3/43 144/56/43
f 86/35/44 26/12/44 77/49/44
f 17/4/45 25/16/45 117/5/45
f 28/24/46 133/57/46 73/58/46
f 124/22/10 59/19/10 51/21/10
f 79/23/47 127/45/47 156/20/47
f 133/57/48 31/59/48 109/60/48
f 37/27/49 157/39/49 114/28/49
f 111/43/50 98/44/50 139/46/50
f 17/4/51 19/8/51 123/42/51
f 79/23/52 70/61/52 110/32/52
f 118/1/53 77/49/53 60/48/53
f 28/24/54 67/37/54 133/57/54
f 67/37/55 14/30/55 78/31/55
f 79/23/56 124/22/56 70/61/56
f 118/1/57 153/3/57 77/49/57
f 156/20/11 59/19/11 79/23/11
f 137/36/58 72/33/58 42/53/58
f 111/43/59 27/47/59 91/41/59
f 98/44/60 19/8/60 119/7/60
f 80/62/61 40/63/61 112/64/61
f 65/18/62 77/49/62 26/12/62
f 36/65/63 143/66/63 92/67/63
f 1/50/64 146/68/64 12/51/64
f 75/69/65 92/67/65 121/70/65
f 66/71/66 53/72/66 54/73/66
f 1/50/67 150/74/67 68/75/67
f 39/26/68 24/15/68 78/31/68
f 149/38/69 36/65/69 145/76/69
f 97/77/70 92/67/70 143/66/70
f 92/67/71 97/77/71 121/70/71
f 151/78/72 21/79/72 103/80/72
f 95/81/73 35/82/73 106/83/73
f 41/84/74 46/85/74 80/62/74
f 27/47/75 51/21/75 91/41/75
f 57/86/76 40/63/76 115/87/76
f 95/81/77 33/88/77 48/89/77
f 97/77/78 143/66/78 34/90/78
f 97/77/79 41/84/79 38/91/79
f 97/77/80 43/92/80 100/93/80
f 57/86/81 135/94/81 137/36/81
f 135/94/82 63/95/82 137/36/82
f 137/36/83 112/64/83 57/86/83
f 1/50/84 18/52/84 11/96/84
f 47/97/85 158/98/85 106/83/85
f 75/69/86 121/70/86 70/61/86
f 85/99/87 9/100/87 10/101/87
f 100/93/88 45/102/88 46/85/88
f 146/68/89 76/103/89 85/99/89
f 11/96/90 129/104/90 88/105/90
f 81/106/91 68/75/91 83/107/91
f 76/103/92 146/68/92 81/106/92
f 2/108/93 76/103/93 81/106/93
f 159/109/94 8/110/94 55/111/94
f 128/29/85 47/97/85 106/83/85
f 46/85/95 141/112/95 80/62/95
f 76/103/96 2/108/96 66/71/96
f 90/113/97 125/114/97 134/115/97
f 110/32/98 70/61/98 121/70/98
f 150/74/99 1/50/99 11/96/99
f 36/65/100 149/38/100 37/27/100
f 2/108/96 83/107/96 66/71/96
f 41/84/101 80/62/101 38/91/101
f 3/116/102 129/104/102 15/117/102
f 11/96/103 88/105/103 82/118/103
f 107/119/104 148/120/104 96/121/104
f 52/122/105 82/118/105 108/10/105
f 130/123/106 44/124/106 114/28/106
f 42/53/107 121/70/107 38/91/107
f 3/116/108 15/117/108 6/125/108
f 4/126/109 85/99/109 10/101/109
f 150/74/110 87/127/110 68/75/110
f 88/105/111 84/128/111 16/9/111
f 18/52/112 15/117/112 129/104/112
f 150/74/113 74/129/113 87/127/113
f 11/96/114 82/118/114 150/74/114
f 131/130/115 10/101/115 147/131/115
f 83/107/93 2/108/93 81/106/93
f 96/121/116 148/120/116 84/128/116
f 4/126/117 21/79/117 6/125/117
f 88/105/118 96/121/118 84/128/118
f 5/132/119 76/103/119 66/71/119
f 25/16/120 123/42/120 102/14/120
f 148/120/121 107/119/121 155/133/121
f 129/104/122 107/119/122 96/121/122
f 11/96/123 18/52/123 129/104/123
f 16/9/124 17/4/124 22/6/124
f 3/116/125 13/134/125 129/104/125
f 88/105/126 16/9/126 30/135/126
f 85/99/127 12/51/127 146/68/127
f 16/9/128 84/128/128 119/7/128
f 51/21/129 78/31/129 91/41/129
f 133/57/130 67/37/130 127/45/130
f 127/45/131 31/59/131 133/57/131
f 38/91/132 121/70/132 97/77/132
f 5/132/94 55/111/94 8/110/94
f 3/116/133 151/78/133 155/133/133
f 21/79/117 4/126/117 10/101/117
f 75/69/134 145/76/134 92/67/134
f 104/2/135 144/56/135 153/3/135
f 71/136/136 27/47/136 139/46/136
f 85/99/109 4/126/109 6/125/109
f 26/12/137 117/5/137 23/13/137
f 74/129/113 52/122/113 87/127/113
f 106/83/138 32/137/138 33/88/138
f 7/138/139 147/131/139 9/100/139
f 44/124/106 128/29/106 114/28/106
f 111/43/140 91/41/140 102/14/140
f 88/105/141 30/135/141 82/118/141
f 7/138/142 76/103/142 8/110/142
f 123/42/143 111/43/143 102/14/143
f 85/99/144 6/125/144 15/117/144
f 98/44/145 138/139/145 139/46/145
f 131/130/146 132/140/146 103/80/146
f 148/120/147 155/133/147 69/141/147
f 8/110/142 159/109/142 147/131/142
f 138/139/148 119/7/148 84/128/148
f 16/9/149 119/7/149 17/4/149
f 55/111/119 5/132/119 66/71/119
f 99/142/150 52/122/150 94/143/150
f 56/144/151 90/113/151 50/145/151
f 158/98/152 47/97/152 44/124/152
f 62/11/153 94/143/153 108/10/153
f 119/7/154 138/139/154 98/44/154
f 90/113/155 134/115/155 50/145/155
f 154/146/156 69/141/156 93/147/156
f 132/140/157 114/28/157 103/80/157
f 9/100/158 85/99/158 76/103/158
f 152/148/159 149/38/159 93/147/159
f 78/31/160 51/21/160 156/20/160
f 138/139/161 84/128/161 148/120/161
f 157/39/162 103/80/162 114/28/162
f 122/149/163 69/141/163 155/133/163
f 94/143/164 62/11/164 116/55/164
f 100/93/165 43/92/165 48/89/165
f 67/37/166 156/20/166 127/45/166
f 139/46/167 154/146/167 93/147/167
f 31/59/168 105/150/168 142/151/168
f 116/55/169 99/142/169 94/143/169
f 30/135/170 16/9/170 108/10/170
f 94/143/171 52/122/171 108/10/171
f 154/146/172 148/120/172 69/141/172
f 154/146/173 139/46/173 138/139/173
f 76/103/94 5/132/94 8/110/94
f 82/118/174 30/135/174 108/10/174
f 151/78/175 103/80/175 122/149/175
f 151/78/176 122/149/176 155/133/176
f 157/39/177 122/149/177 103/80/177
f 154/146/178 138/139/178 148/120/178
f 157/39/179 69/141/179 122/149/179
f 93/147/180 71/136/180 139/46/180
f 71/136/181 75/69/181 124/22/181
f 70/61/182 124/22/182 75/69/182
f 54/152/183 53/153/183 49/154/183
f 95/81/184 34/90/184 143/66/184
f 44/124/152 130/123/152 158/98/152
f 125/114/185 32/137/185 158/98/185
f 56/144/186 46/85/186 90/113/186
f 128/29/187 35/82/187 143/66/187
f 46/85/188 56/144/188 141/112/188
f 90/113/189 45/102/189 48/89/189
f 45/102/190 90/113/190 46/85/190
f 45/102/191 100/93/191 48/89/191
f 112/64/192 42/53/192 38/91/192
f 47/97/152 128/29/152 44/124/152
f 43/92/193 95/81/193 48/89/193
f 125/114/194 29/155/194 33/88/194
f 38/91/195 80/62/195 112/64/195
f 41/84/196 100/93/196 46/85/196
f 127/45/197 110/32/197 136/34/197
f 40/63/61 57/86/61 112/64/61
f 40/63/76 80/62/76 115/87/76
f 42/53/198 110/32/198 121/70/198
f 97/77/199 100/93/199 41/84/199
f 42/53/200 112/64/200 137/36/200
f 9/100/115 147/131/115 10/101/115
f 36/65/201 128/29/201 143/66/201
f 36/65/202 92/67/202 145/76/202
f 35/82/203 95/81/203 143/66/203
f 35/82/204 128/29/204 106/83/204
f 34/90/205 95/81/205 43/92/205
f 27/47/206 71/136/206 124/22/206
f 48/89/207 29/155/207 90/113/207
f 33/88/208 95/81/208 106/83/208
f 32/137/138 125/114/138 33/88/138
f 32/137/185 106/83/185 158/98/185
f 29/155/209 48/89/209 33/88/209
f 29/155/194 125/114/194 90/113/194
f 36/65/210 37/27/210 128/29/210
f 31/59/211 142/151/211 109/60/211
f 151/78/117 6/125/117 21/79/117
f 27/47/212 124/22/212 51/21/212
f 52/122/213 74/129/213 82/118/213
f 97/77/214 34/90/214 43/92/214
f 65/18/215 26/12/215 23/13/215
f 74/129/213 150/74/213 82/118/213
f 151/78/216 3/116/216 6/125/216
f 10/101/117 131/130/117 21/79/117
f 21/79/72 131/130/72 103/80/72
f 19/8/217 98/44/217 123/42/217
f 1/50/218 68/75/218 81/106/218
f 76/103/139 7/138/139 9/100/139
f 3/116/125 155/133/125 13/134/125
f 147/131/142 7/138/142 8/110/142
f 96/121/219 88/105/219 129/104/219
f 12/51/220 85/99/220 18/52/220
f 129/104/221 13/134/221 107/119/221
f 1/50/222 81/106/222 146/68/222
f 31/59/223 127/45/223 136/34/223
f 31/59/224 136/34/224 105/150/224
f 13/134/221 155/133/221 107/119/221
f 15/117/225 18/52/225 85/99/225
f 130/123/226 114/28/226 132/140/226
f 105/150/227 126/156/227 64/157/227
f 66/71/228 54/73/228 55/111/228
f 158/98/229 140/158/229 125/114/229
f 140/158/230 120/159/230 125/114/230
f 69/141/231 152/148/231 93/147/231
f 159/109/232 131/130/232 147/131/232
f 141/112/233 115/87/233 80/62/233
f 130/123/234 101/160/234 158/98/234
f 145/76/235 93/147/235 149/38/235
f 120/159/236 134/115/236 125/114/236
f 105/150/237 63/95/237 126/156/237
f 149/38/238 152/148/238 157/39/238
f 101/160/239 130/123/239 132/140/239
f 132/140/240 89/161/240 101/160/240
f 63/95/241 105/150/241 137/36/241
f 145/76/242 75/69/242 71/136/242
f 109/60/243 142/151/243 64/157/243
f 159/109/244 89/161/244 131/130/244
f 142/151/245 105/150/245 64/157/245
f 152/148/246 69/141/246 157/39/246
f 132/140/247 131/130/247 89/161/247
f 145/76/248 71/136/248 93/147/248
f 105/150/249 136/34/249 137/36/249
f 140/158/250 158/98/250 101/160/250
