# Blender 3.1.0
# www.blender.org
mtllib lug_boat_collision_shape.mtl
o Cube
v -0.654763 -0.031307 1.000000
v -0.852618 0.393547 1.000000
v -0.615576 -0.031307 -1.000000
v -0.708663 0.380123 -1.000000
v 0.654763 -0.031307 1.000000
v 0.852618 0.393547 1.000000
v 0.615576 -0.031307 -1.000000
v 0.708663 0.380123 -1.000000
v -0.723407 -0.031307 0.000000
v -0.825848 0.362192 0.000000
v 0.723407 -0.031307 0.000000
v 0.825848 0.362192 0.000000
v -0.511365 -0.031307 1.717161
v -0.736319 0.439315 1.717161
v 0.736319 0.439315 1.717161
v 0.511365 -0.031307 1.717161
v -0.260158 -0.031307 2.555261
v -0.510029 0.555827 2.555261
v 0.510029 0.555827 2.555261
v 0.260158 -0.031307 2.555261
v -0.038275 -0.031307 3.186306
v -0.083640 0.687358 3.186306
v 0.083640 0.687358 3.186306
v 0.038275 -0.031307 3.186306
v -0.442848 0.455773 -1.919373
v -0.279247 -0.031307 -1.778543
v 0.279247 -0.031307 -1.778543
v 0.442848 0.455773 -1.919373
v -0.291994 -0.357711 0.000000
v -0.250980 -0.357711 1.000000
v 0.172345 -0.369998 -1.000000
v -0.172345 -0.369998 -1.000000
v 0.291994 -0.357711 0.000000
v 0.250980 -0.357711 1.000000
v -0.138692 -0.357711 1.717161
v 0.138692 -0.357711 1.717161
v -0.070560 -0.330377 2.555261
v 0.070560 -0.330377 2.555261
v -0.010381 -0.240543 3.029866
v 0.010381 -0.240543 3.029866
v 0.009992 -0.377272 -1.711396
v -0.009992 -0.377272 -1.711396
vn -0.9700 -0.2195 -0.1046
vn -0.0000 0.9966 0.0820
vn 0.9656 -0.2514 0.0663
vn -0.0000 0.9980 -0.0637
vn -0.8415 -0.5335 0.0858
vn -0.0000 0.9995 -0.0313
vn -0.0000 0.9998 0.0179
vn -0.8837 -0.3501 0.3107
vn 0.9700 -0.2195 -0.1046
vn -0.9656 -0.2514 0.0663
vn 0.6464 -0.7380 0.1937
vn 0.8879 -0.4244 0.1775
vn -0.8931 -0.4159 0.1714
vn -0.0000 -0.5988 0.8009
vn -0.7526 -0.3203 0.5753
vn -0.8633 -0.4127 0.2905
vn -0.0000 0.9905 -0.1377
vn 0.8870 -0.3775 0.2659
vn -0.0000 -0.0000 1.0000
vn -0.0000 0.9790 -0.2040
vn 0.9417 -0.0594 0.3311
vn -0.0000 -0.1905 -0.9817
vn -0.0000 -0.2778 -0.9607
vn -0.8988 -0.2034 -0.3883
vn 0.8805 -0.3783 -0.2857
vn -0.6284 -0.7774 0.0258
vn -0.0000 -1.0000 -0.0000
vn -0.0000 -0.9999 0.0123
vn -0.0000 -0.9995 0.0326
vn -0.0000 -0.9826 0.1860
vn -0.0000 -0.9999 0.0102
vn 0.6237 -0.7716 0.1247
vn -0.6021 -0.7958 -0.0649
vn -0.6554 -0.7483 0.1026
vn -0.5873 -0.7686 -0.2537
vn 0.8268 -0.5242 0.2041
vn 0.7620 -0.6255 -0.1675
vn 0.6028 -0.7968 0.0414
vn 0.6060 -0.7930 -0.0628
vn -0.8268 -0.5242 0.2041
vn 0.8837 -0.3501 0.3107
vn -0.9611 -0.2502 -0.1171
vn 0.9065 -0.4221 -0.0110
vn -0.6464 -0.7380 0.1937
vn 0.9611 -0.2502 -0.1171
vn -0.9065 -0.4221 -0.0110
vn 0.8415 -0.5335 0.0858
vn 0.8931 -0.4159 0.1714
vn -0.8879 -0.4244 0.1775
vn -0.9417 -0.0594 0.3311
vn -0.8870 -0.3775 0.2659
vn 0.8633 -0.4127 0.2905
vn 0.7526 -0.3203 0.5753
vn -0.8805 -0.3783 -0.2857
vn 0.8988 -0.2034 -0.3883
vn -0.6028 -0.7968 0.0414
vn 0.6554 -0.7483 0.1026
vn -0.6060 -0.7930 -0.0628
vn -0.6237 -0.7716 0.1247
vn -0.7620 -0.6255 -0.1675
vn 0.5873 -0.7686 -0.2537
vn 0.6284 -0.7774 0.0258
vn 0.6021 -0.7958 -0.0649
vt 0.375000 0.000000
vt 0.875000 0.750000
vt 0.625000 0.000000
vt 0.375000 0.250000
vt 0.875000 0.500000
vt 0.625000 0.250000
vt 0.375000 0.750000
vt 0.625000 0.750000
vt 0.375000 0.500000
vt 0.625000 0.500000
vt 0.375000 0.125000
vt 0.875000 0.625000
vt 0.625000 0.125000
vt 0.375000 0.625000
vt 0.625000 0.625000
vt 0.375000 0.000000
vt 0.625000 0.000000
vt 0.875000 0.750000
vt 0.625000 0.750000
vt 0.375000 0.750000
vt 0.375000 0.000000
vt 0.625000 0.000000
vt 0.875000 0.750000
vt 0.625000 0.750000
vt 0.375000 0.750000
vt 0.375000 0.000000
vt 0.375000 1.000000
vt 0.625000 0.000000
vt 0.625000 1.000000
vt 0.875000 0.750000
vt 0.625000 0.750000
vt 0.375000 0.750000
vt 0.875000 0.500000
vt 0.625000 0.250000
vt 0.375000 0.250000
vt 0.375000 0.500000
vt 0.625000 0.500000
vt 0.125000 0.625000
vt 0.375000 0.125000
vt 0.125000 0.750000
vt 0.375000 0.000000
vt 0.375000 0.500000
vt 0.125000 0.500000
vt 0.375000 0.250000
vt 0.375000 0.625000
vt 0.375000 0.750000
vt 0.375000 0.000000
vt 0.125000 0.750000
vt 0.375000 0.750000
vt 0.375000 0.000000
vt 0.125000 0.750000
vt 0.375000 0.750000
vt 0.375000 0.000000
vt 0.375000 1.000000
vt 0.125000 0.750000
vt 0.375000 0.750000
vt 0.375000 0.500000
vt 0.125000 0.500000
vt 0.375000 0.250000
s 0
f 9/11/1 4/6/1 3/4/1
f 8/10/2 25/33/2 4/5/2
f 12/15/3 5/7/3 11/14/3
f 2/2/4 15/19/4 6/8/4
f 17/21/5 35/47/5 37/50/5
f 10/12/6 6/8/6 12/15/6
f 4/5/7 12/15/7 8/10/7
f 21/26/8 17/21/8 39/53/8
f 8/10/9 11/14/9 7/9/9
f 1/1/10 10/13/10 9/11/10
f 20/25/11 36/49/11 16/20/11
f 5/7/12 15/19/12 16/20/12
f 1/1/13 14/17/13 2/3/13
f 21/27/14 40/56/14 24/32/14
f 17/21/15 22/28/15 18/22/15
f 13/16/16 18/22/16 14/17/16
f 14/18/17 19/24/17 15/19/17
f 16/20/18 19/24/18 20/25/18
f 23/31/19 21/27/19 24/32/19
f 19/24/20 22/30/20 23/31/20
f 20/25/21 23/31/21 24/32/21
f 27/36/22 42/59/22 26/35/22
f 25/34/23 27/36/23 26/35/23
f 4/6/24 26/35/24 3/4/24
f 8/10/25 27/36/25 28/37/25
f 1/1/26 29/39/26 30/41/26
f 33/45/27 30/40/27 29/38/27
f 31/42/28 29/38/28 32/43/28
f 36/49/29 37/51/29 35/48/29
f 34/46/27 35/48/27 30/40/27
f 38/52/30 39/55/30 37/51/30
f 32/43/31 41/57/31 31/42/31
f 16/20/32 34/46/32 5/7/32
f 3/4/33 29/39/33 9/11/33
f 13/16/34 30/41/34 35/47/34
f 26/35/35 32/44/35 3/4/35
f 20/25/36 40/56/36 38/52/36
f 27/36/37 31/42/37 41/57/37
f 5/7/38 33/45/38 11/14/38
f 7/9/39 33/45/39 31/42/39
f 39/53/40 17/21/40 37/50/40
f 40/56/41 20/25/41 24/32/41
f 9/11/42 10/13/42 4/6/42
f 8/10/2 28/37/2 25/33/2
f 12/15/43 6/8/43 5/7/43
f 2/2/4 14/18/4 15/19/4
f 17/21/44 13/16/44 35/47/44
f 10/12/6 2/2/6 6/8/6
f 4/5/7 10/12/7 12/15/7
f 8/10/45 12/15/45 11/14/45
f 1/1/46 2/3/46 10/13/46
f 20/25/47 38/52/47 36/49/47
f 5/7/48 6/8/48 15/19/48
f 1/1/49 13/16/49 14/17/49
f 21/27/14 39/54/14 40/56/14
f 17/21/50 21/26/50 22/28/50
f 13/16/51 17/21/51 18/22/51
f 14/18/17 18/23/17 19/24/17
f 16/20/52 15/19/52 19/24/52
f 23/31/19 22/29/19 21/27/19
f 19/24/20 18/23/20 22/30/20
f 20/25/53 19/24/53 23/31/53
f 27/36/22 41/57/22 42/59/22
f 25/34/23 28/37/23 27/36/23
f 4/6/54 25/34/54 26/35/54
f 8/10/55 7/9/55 27/36/55
f 1/1/56 9/11/56 29/39/56
f 33/45/27 34/46/27 30/40/27
f 31/42/28 33/45/28 29/38/28
f 36/49/29 38/52/29 37/51/29
f 34/46/27 36/49/27 35/48/27
f 38/52/30 40/56/30 39/55/30
f 32/43/31 42/58/31 41/57/31
f 16/20/57 36/49/57 34/46/57
f 3/4/58 32/44/58 29/39/58
f 13/16/59 1/1/59 30/41/59
f 26/35/60 42/59/60 32/44/60
f 27/36/61 7/9/61 31/42/61
f 5/7/62 34/46/62 33/45/62
f 7/9/63 11/14/63 33/45/63
