{
    "asset" : {
        "generator" : "Khronos glTF Blender I/O v1.8.19",
        "version" : "2.0"
    },
    "scene" : 0,
    "scenes" : [
        {
            "name" : "Scene",
            "nodes" : [
                0,
                1,
                2
            ]
        }
    ],
    "nodes" : [
        {
            "mesh" : 0,
            "name" : "Plane.001",
            "rotation" : [
                0,
                0,
                -0.7071067690849304,
                0.7071068286895752
            ],
            "translation" : [
                -0.09313832968473434,
                3.1208384037017822,
                0.260272741317749
            ]
        },
        {
            "mesh" : 1,
            "name" : "Cylinder.001",
            "rotation" : [
                -0.019938679412007332,
                0,
                0,
                0.9998012185096741
            ],
            "scale" : [
                0.15622371435165405,
                0.15622371435165405,
                0.15622371435165405
            ],
            "translation" : [
                -0.03622398525476456,
                0.12426506727933884,
                1.6296112537384033
            ]
        },
        {
            "mesh" : 2,
            "name" : "Cylinder.002",
            "rotation" : [
                -0.019938679412007332,
                0,
                0,
                0.9998012185096741
            ],
            "scale" : [
                0.15622371435165405,
                0.15622371435165405,
                0.15622371435165405
            ],
            "translation" : [
                -0.03622398525476456,
                0.12426506727933884,
                1.6296112537384033
            ]
        }
    ],
    "materials" : [
        {
            "doubleSided" : true,
            "name" : "Wood",
            "pbrMetallicRoughness" : {
                "baseColorFactor" : [
                    0.3031976521015167,
                    0.172841414809227,
                    0.10183054953813553,
                    1
                ],
                "metallicFactor" : 0,
                "roughnessFactor" : 0.5
            }
        }
    ],
    "meshes" : [
        {
            "name" : "Plane.005",
            "primitives" : [
                {
                    "attributes" : {
                        "POSITION" : 0,
                        "NORMAL" : 1,
                        "TEXCOORD_0" : 2
                    },
                    "indices" : 3
                }
            ]
        },
        {
            "name" : "Cylinder.009",
            "primitives" : [
                {
                    "attributes" : {
                        "POSITION" : 4,
                        "NORMAL" : 5,
                        "TEXCOORD_0" : 6
                    },
                    "indices" : 7,
                    "material" : 0
                }
            ]
        },
        {
            "name" : "Cylinder.010",
            "primitives" : [
                {
                    "attributes" : {
                        "POSITION" : 8,
                        "NORMAL" : 9,
                        "TEXCOORD_0" : 10
                    },
                    "indices" : 11,
                    "material" : 0
                }
            ]
        }
    ],
    "accessors" : [
        {
            "bufferView" : 0,
            "componentType" : 5126,
            "count" : 143,
            "max" : [
                1.7143363952636719,
                2.377538379505495e-07,
                1.9149179458618164
            ],
            "min" : [
                -3.1494529247283936,
                -1.294520473038574e-07,
                -1.2108421325683594
            ],
            "type" : "VEC3"
        },
        {
            "bufferView" : 1,
            "componentType" : 5126,
            "count" : 143,
            "type" : "VEC3"
        },
        {
            "bufferView" : 2,
            "componentType" : 5126,
            "count" : 143,
            "type" : "VEC2"
        },
        {
            "bufferView" : 3,
            "componentType" : 5123,
            "count" : 216,
            "type" : "SCALAR"
        },
        {
            "bufferView" : 4,
            "componentType" : 5126,
            "count" : 112,
            "max" : [
                -0.11133790016174316,
                9.192571640014648,
                3.8820605278015137
            ],
            "min" : [
                -0.5489765405654907,
                8.075872421264648,
                -16.056718826293945
            ],
            "type" : "VEC3"
        },
        {
            "bufferView" : 5,
            "componentType" : 5126,
            "count" : 112,
            "type" : "VEC3"
        },
        {
            "bufferView" : 6,
            "componentType" : 5126,
            "count" : 112,
            "type" : "VEC2"
        },
        {
            "bufferView" : 7,
            "componentType" : 5123,
            "count" : 180,
            "type" : "SCALAR"
        },
        {
            "bufferView" : 8,
            "componentType" : 5126,
            "count" : 112,
            "max" : [
                -0.14109621942043304,
                40.21739196777344,
                2.8215408325195312
            ],
            "min" : [
                -0.5192182064056396,
                29.80513572692871,
                -11.237922668457031
            ],
            "type" : "VEC3"
        },
        {
            "bufferView" : 9,
            "componentType" : 5126,
            "count" : 112,
            "type" : "VEC3"
        },
        {
            "bufferView" : 10,
            "componentType" : 5126,
            "count" : 112,
            "type" : "VEC2"
        },
        {
            "bufferView" : 11,
            "componentType" : 5123,
            "count" : 180,
            "type" : "SCALAR"
        }
    ],
    "bufferViews" : [
        {
            "buffer" : 0,
            "byteLength" : 1716,
            "byteOffset" : 0
        },
        {
            "buffer" : 0,
            "byteLength" : 1716,
            "byteOffset" : 1716
        },
        {
            "buffer" : 0,
            "byteLength" : 1144,
            "byteOffset" : 3432
        },
        {
            "buffer" : 0,
            "byteLength" : 432,
            "byteOffset" : 4576
        },
        {
            "buffer" : 0,
            "byteLength" : 1344,
            "byteOffset" : 5008
        },
        {
            "buffer" : 0,
            "byteLength" : 1344,
            "byteOffset" : 6352
        },
        {
            "buffer" : 0,
            "byteLength" : 896,
            "byteOffset" : 7696
        },
        {
            "buffer" : 0,
            "byteLength" : 360,
            "byteOffset" : 8592
        },
        {
            "buffer" : 0,
            "byteLength" : 1344,
            "byteOffset" : 8952
        },
        {
            "buffer" : 0,
            "byteLength" : 1344,
            "byteOffset" : 10296
        },
        {
            "buffer" : 0,
            "byteLength" : 896,
            "byteOffset" : 11640
        },
        {
            "buffer" : 0,
            "byteLength" : 360,
            "byteOffset" : 12536
        }
    ],
    "buffers" : [
        {
            "byteLength" : 12896,
            "uri" : "data:application/octet-stream;base64,"
        }
    ]
}
