# Blender 3.1.0
# www.blender.org
o MainSail
v 0.012906 11.836472 8.102783
v -0.000000 0.175302 11.630687
v -0.000000 8.128324 0.944133
v -0.000000 0.033563 -0.129031
v 0.001084 4.265459 0.991868
v 0.000086 7.555828 1.582443
v 0.000221 0.907599 0.907499
v 0.011502 10.568362 8.486430
v 0.010105 9.306066 8.868319
v 0.009148 8.441411 9.129906
v 0.007864 7.281219 9.480904
v 0.006695 6.224563 9.800578
v 0.005214 4.886399 10.205419
v 0.003754 3.566942 10.604599
v 0.002551 2.480685 10.933229
v 0.001643 1.659547 11.181652
v 0.000787 0.886330 11.415577
v 0.000576 2.308113 2.645489
v 0.002364 6.998994 2.341762
v 0.001428 2.660767 7.266625
v 0.006365 7.000060 6.321021
v 0.000902 2.198682 7.367324
v 0.005476 6.219117 6.491201
v 0.008045 8.476651 5.999249
v 0.000425 1.779022 7.459285
v 0.004684 5.522311 6.643047
v 0.003701 4.658995 6.831181
v 0.007040 7.593184 6.191771
v 0.002756 3.827982 7.012269
v 0.001994 3.158420 7.158179
v 0.009078 9.385226 5.800503
vn 1.0000 -0.0012 -0.0004
vn 1.0000 0.0003 -0.0019
vn 1.0000 0.0003 0.0001
vn 1.0000 -0.0012 -0.0012
vn 1.0000 -0.0003 -0.0000
vn 1.0000 0.0007 -0.0025
vt 0.000000 0.000000
vt 1.000000 0.000000
vt 0.000000 1.000000
vt 1.000000 1.000000
vt 0.489300 0.941458
vt 0.151519 0.884019
vt 0.901516 0.913758
vt 0.108746 0.000000
vt 0.216994 0.000000
vt 0.291142 0.000000
vt 0.390634 0.000000
vt 0.481247 0.000000
vt 0.596001 0.000000
vt 0.709151 0.000000
vt 0.802303 0.000000
vt 0.872719 0.000000
vt 0.939026 0.000000
vt 0.730948 0.781416
vt 0.251693 0.772844
vt 0.725405 0.361719
vt 0.359538 0.324949
vt 0.764366 0.365634
vt 0.425383 0.331566
vt 0.235039 0.312437
vt 0.799758 0.369139
vt 0.484134 0.337471
vt 0.556925 0.344786
vt 0.309528 0.319923
vt 0.626991 0.351828
vt 0.683446 0.357502
vt 0.158419 0.304813
s 0
f 1/1/1 8/8/1 31/31/1
f 12/12/1 26/26/1 23/23/1
f 3/3/2 5/5/2 4/4/2
f 3/3/3 6/6/3 5/5/3
f 6/6/4 3/3/4 1/1/4
f 5/5/5 7/7/5 4/4/5
f 4/4/5 7/7/5 2/2/5
f 5/5/6 6/6/6 19/19/6
f 5/5/1 24/24/1 28/28/1
f 9/9/1 10/10/1 28/28/1
f 5/5/1 21/21/1 23/23/1
f 12/12/1 23/23/1 11/11/1
f 12/12/1 27/27/1 26/26/1
f 13/13/1 29/29/1 27/27/1
f 14/14/1 30/30/1 29/29/1
f 15/15/1 20/20/1 30/30/1
f 16/16/1 22/22/1 20/20/1
f 17/17/1 25/25/1 22/22/1
f 2/2/5 7/7/5 18/18/5
f 18/18/5 7/7/5 5/5/5
f 5/5/5 25/25/5 18/18/5
f 1/1/6 19/19/6 6/6/6
f 19/19/6 1/1/6 31/31/6
f 28/28/1 21/21/1 5/5/1
f 20/20/1 22/22/1 5/5/1
f 27/27/1 29/29/1 5/5/1
f 21/21/1 11/11/1 23/23/1
f 22/22/1 25/25/1 5/5/1
f 29/29/1 30/30/1 5/5/1
f 31/31/1 24/24/1 5/5/1
f 23/23/1 26/26/1 5/5/1
f 28/28/1 24/24/1 9/9/1
f 30/30/1 20/20/1 5/5/1
f 26/26/1 27/27/1 5/5/1
f 31/31/1 8/8/1 24/24/1
f 9/9/1 24/24/1 8/8/1
f 28/28/1 10/10/1 21/21/1
f 31/31/6 5/5/6 19/19/6
f 18/18/5 25/25/5 2/2/5
f 12/12/1 13/13/1 27/27/1
f 13/13/1 14/14/1 29/29/1
f 14/14/1 15/15/1 30/30/1
f 15/15/1 16/16/1 20/20/1
f 16/16/1 17/17/1 22/22/1
f 17/17/1 2/2/1 25/25/1
f 21/21/1 10/10/1 11/11/1
