# Blender v2.90.1 OBJ File: 'boat.blend'
# www.blender.org
mtllib mainsail.mtl
v -0.083291 5.120705 -0.036038
v -0.091051 0.071422 -0.032233
v -0.132343 5.107699 -0.295833
v -0.025643 0.190983 -2.022449
v -0.120641 4.560792 -0.006699
v -0.150762 4.001057 0.013165
v -0.173884 3.440565 0.025392
v -0.188792 2.879473 0.030425
v -0.195485 2.317983 0.029671
v -0.193074 1.756221 0.023661
v -0.177783 1.194304 0.011636
v -0.145804 0.632498 -0.006711
v -0.078807 0.707766 -1.795804
v -0.112205 1.239664 -1.588219
v -0.134300 1.779791 -1.386358
v -0.150826 2.325182 -1.190391
v -0.164520 2.874624 -0.999539
v -0.174488 3.427654 -0.814076
v -0.177970 3.983901 -0.634872
v -0.168584 4.543497 -0.461307
v -0.127681 5.110188 -0.251614
v -0.123011 5.112664 -0.207577
v -0.118111 5.115110 -0.163753
v -0.106475 5.116985 -0.120993
v -0.094864 5.118850 -0.078422
v -0.143260 0.082789 -0.361782
v -0.117049 0.104911 -0.696137
v -0.073551 0.129057 -1.025318
v -0.041239 0.151634 -1.353206
v -0.028693 0.171591 -1.681499
v -0.140604 4.558739 -0.080185
v -0.157673 4.556466 -0.154624
v -0.165657 4.553565 -0.230808
v -0.173607 4.550637 -0.307537
v -0.171267 4.547085 -0.384248
v -0.179104 3.999421 -0.091536
v -0.194378 3.997084 -0.199099
v -0.203074 3.994391 -0.308173
v -0.199215 3.991095 -0.417533
v -0.190434 3.987578 -0.526446
v -0.209523 3.439687 -0.110761
v -0.224046 3.438014 -0.251594
v -0.222571 3.435780 -0.393349
v -0.210955 3.433208 -0.534587
v -0.193648 3.430456 -0.674784
v -0.227721 2.879538 -0.137801
v -0.240154 2.879051 -0.311388
v -0.230801 2.878126 -0.485565
v -0.209987 2.876979 -0.658009
v -0.186481 2.875784 -0.829119
v -0.237715 2.319356 -0.170711
v -0.244460 2.320629 -0.377048
v -0.226255 2.321802 -0.582783
v -0.198905 2.322926 -0.786304
v -0.172410 2.324045 -0.988527
v -0.238624 1.759261 -0.208961
v -0.239659 1.763091 -0.448180
v -0.211437 1.767327 -0.684754
v -0.179588 1.771586 -0.919225
v -0.152376 1.775758 -1.152815
v -0.226681 1.199383 -0.253304
v -0.217542 1.206989 -0.524416
v -0.183112 1.215538 -0.792249
v -0.149237 1.224003 -1.057833
v -0.123311 1.232130 -1.322818
v -0.198107 0.640107 -0.304033
v -0.178498 0.653485 -0.606848
v -0.139035 0.668233 -0.905517
v -0.104643 0.682518 -1.202302
v -0.084433 0.695704 -1.498998
v -0.092917 5.121482 -0.033444
v -0.100862 0.070341 -0.030630
v -0.142319 5.108372 -0.295704
v -0.035595 0.190014 -2.022632
v -0.130273 4.561487 -0.004102
v -0.160409 4.001585 0.015744
v -0.183568 3.440908 0.027862
v -0.198531 2.879633 0.032689
v -0.205269 2.317978 0.031740
v -0.202885 1.756009 0.025584
v -0.187606 1.193818 0.013442
v -0.155624 0.631638 -0.005032
v -0.088772 0.706955 -1.796039
v -0.122186 1.239218 -1.588643
v -0.144273 1.779615 -1.387073
v -0.160775 2.325208 -1.191399
v -0.174443 2.874794 -1.000762
v -0.184398 3.427953 -0.815377
v -0.187900 3.984319 -0.635973
v -0.178557 4.544059 -0.461761
v -0.137652 5.110937 -0.251471
v -0.132961 5.113417 -0.206921
v -0.127994 5.115830 -0.162409
v -0.116244 5.117731 -0.118990
v -0.104522 5.119621 -0.075946
v -0.153200 0.081773 -0.361398
v -0.126948 0.103997 -0.697219
v -0.083435 0.128155 -1.026540
v -0.051163 0.150705 -1.354009
v -0.038641 0.170633 -1.681842
v -0.150305 4.559421 -0.077858
v -0.167515 4.557123 -0.152980
v -0.175593 4.554199 -0.229878
v -0.183584 4.551286 -0.307346
v -0.181244 4.547708 -0.384531
v -0.188882 3.999943 -0.089507
v -0.204312 3.997585 -0.198077
v -0.213061 3.994864 -0.307981
v -0.209190 3.991557 -0.418070
v -0.200379 3.988022 -0.527389
v -0.219362 3.440033 -0.109009
v -0.234027 3.438354 -0.251094
v -0.232555 3.436111 -0.393784
v -0.220899 3.433531 -0.535594
v -0.203565 3.430770 -0.676030
v -0.237609 2.879699 -0.136321
v -0.250152 2.879224 -0.311314
v -0.240763 2.878313 -0.486411
v -0.219908 2.877168 -0.659249
v -0.196396 2.875970 -0.830404
v -0.247641 2.319361 -0.169500
v -0.254456 2.320659 -0.377318
v -0.236194 2.321849 -0.583883
v -0.208820 2.322974 -0.787601
v -0.182341 2.324090 -0.989689
v -0.248574 1.759070 -0.207989
v -0.249642 1.762941 -0.448750
v -0.221359 1.767198 -0.685992
v -0.189510 1.771456 -0.920464
v -0.162330 1.775618 -1.153770
v -0.236643 1.198929 -0.252562
v -0.227501 1.206591 -0.525228
v -0.193023 1.215159 -0.793525
v -0.159167 1.223624 -1.058948
v -0.133278 1.231732 -1.323524
v -0.208060 0.639299 -0.303507
v -0.188423 0.652761 -0.607839
v -0.148930 0.667526 -0.906774
v -0.114572 0.681796 -1.203244
v -0.094394 0.694954 -1.499471
vt 0.888889 0.833333
vt 1.000000 0.833333
vt 1.000000 1.000000
vt 0.888889 1.000000
vt 0.000000 0.833333
vt 0.111111 0.833333
vt 0.111111 1.000000
vt 0.000000 1.000000
vt 0.222222 0.833333
vt 0.222222 1.000000
vt 0.333333 0.833333
vt 0.333333 1.000000
vt 0.444444 0.833333
vt 0.444444 1.000000
vt 0.555556 0.833333
vt 0.555556 1.000000
vt 0.666667 0.833333
vt 0.666667 1.000000
vt 0.777778 0.833333
vt 0.777778 1.000000
vt 0.777778 0.000000
vt 0.888889 0.000000
vt 0.888889 0.166667
vt 0.777778 0.166667
vt 0.888889 0.333333
vt 0.777778 0.333333
vt 0.888889 0.500000
vt 0.777778 0.500000
vt 0.888889 0.666667
vt 0.777778 0.666667
vt 0.666667 0.000000
vt 0.666667 0.166667
vt 0.666667 0.333333
vt 0.666667 0.500000
vt 0.666667 0.666667
vt 0.555556 0.000000
vt 0.555556 0.166667
vt 0.555556 0.333333
vt 0.555556 0.500000
vt 0.555556 0.666667
vt 0.444444 0.000000
vt 0.444445 0.166667
vt 0.444444 0.333333
vt 0.444444 0.500000
vt 0.444444 0.666667
vt 0.333333 0.000000
vt 0.333333 0.166667
vt 0.333333 0.333333
vt 0.333333 0.500000
vt 0.333333 0.666667
vt 0.222222 0.000000
vt 0.222222 0.166667
vt 0.222222 0.333333
vt 0.222222 0.500000
vt 0.222222 0.666667
vt 0.111111 0.000000
vt 0.111111 0.166667
vt 0.111111 0.333333
vt 0.111111 0.500000
vt 0.111111 0.666667
vt 0.000000 0.000000
vt 0.000000 0.166667
vt 0.000000 0.333333
vt 0.000000 0.500000
vt 0.000000 0.666667
vt 1.000000 0.000000
vt 1.000000 0.166667
vt 1.000000 0.333333
vt 1.000000 0.500000
vt 1.000000 0.666667
vt 0.888889 0.833333
vt 0.888889 1.000000
vt 1.000000 1.000000
vt 1.000000 0.833333
vt 0.000000 0.833333
vt 0.000000 1.000000
vt 0.111111 1.000000
vt 0.111111 0.833333
vt 0.222222 1.000000
vt 0.222222 0.833333
vt 0.333333 1.000000
vt 0.333333 0.833333
vt 0.444444 1.000000
vt 0.444444 0.833333
vt 0.555556 1.000000
vt 0.555556 0.833333
vt 0.666667 1.000000
vt 0.666667 0.833333
vt 0.777778 1.000000
vt 0.777778 0.833333
vt 0.777778 0.000000
vt 0.777778 0.166667
vt 0.888889 0.166667
vt 0.888889 0.000000
vt 0.777778 0.333333
vt 0.888889 0.333333
vt 0.777778 0.500000
vt 0.888889 0.500000
vt 0.777778 0.666667
vt 0.888889 0.666667
vt 0.666667 0.000000
vt 0.666667 0.166667
vt 0.666667 0.333333
vt 0.666667 0.500000
vt 0.666667 0.666667
vt 0.555556 0.000000
vt 0.555556 0.166667
vt 0.555556 0.333333
vt 0.555556 0.500000
vt 0.555556 0.666667
vt 0.444444 0.000000
vt 0.444445 0.166667
vt 0.444444 0.333333
vt 0.444444 0.500000
vt 0.444444 0.666667
vt 0.333333 0.000000
vt 0.333333 0.166667
vt 0.333333 0.333333
vt 0.333333 0.500000
vt 0.333333 0.666667
vt 0.222222 0.000000
vt 0.222222 0.166667
vt 0.222222 0.333333
vt 0.222222 0.500000
vt 0.222222 0.666667
vt 0.111111 0.000000
vt 0.111111 0.166667
vt 0.111111 0.333333
vt 0.111111 0.500000
vt 0.111111 0.666667
vt 0.000000 0.000000
vt 0.000000 0.166667
vt 0.000000 0.333333
vt 0.000000 0.500000
vt 0.000000 0.666667
vt 1.000000 0.166667
vt 1.000000 0.000000
vt 1.000000 0.333333
vt 1.000000 0.500000
vt 1.000000 0.666667
vn 0.9951 0.0969 0.0183
vn 0.9977 -0.0672 -0.0129
vn 0.9953 -0.0489 0.0832
vn 0.9911 -0.0373 0.1275
vn 0.9909 -0.0251 0.1319
vn 0.9932 -0.0119 0.1162
vn 0.9959 0.0034 0.0908
vn 0.9979 0.0269 0.0590
vn 0.9979 0.0561 0.0317
vn 0.9824 0.0639 -0.1754
vn 0.9972 0.0544 0.0519
vn 0.9900 0.0514 0.1313
vn 0.9911 0.0517 0.1224
vn 0.9951 0.0522 0.0837
vn 0.9820 0.0332 -0.1859
vn 0.9995 0.0287 0.0165
vn 0.9920 0.0246 0.1238
vn 0.9911 0.0236 0.1309
vn 0.9940 0.0240 0.1065
vn 0.9800 0.0091 -0.1986
vn 0.9998 0.0052 -0.0174
vn 0.9945 0.0013 0.1044
vn 0.9910 0.0021 0.1340
vn 0.9925 0.0025 0.1223
vn 0.9766 -0.0081 -0.2150
vn 0.9987 -0.0083 -0.0504
vn 0.9973 -0.0104 0.0723
vn 0.9918 -0.0118 0.1271
vn 0.9911 -0.0120 0.1327
vn 0.9710 -0.0240 -0.2378
vn 0.9961 -0.0239 -0.0852
vn 0.9991 -0.0265 0.0345
vn 0.9943 -0.0264 0.1031
vn 0.9912 -0.0253 0.1303
vn 0.9656 -0.0446 -0.2560
vn 0.9919 -0.0457 -0.1183
vn 0.9988 -0.0405 -0.0280
vn 0.9973 -0.0392 0.0625
vn 0.9937 -0.0383 0.1050
vn 0.9637 -0.0611 -0.2600
vn 0.9832 -0.0574 -0.1733
vn 0.9945 -0.0563 -0.0878
vn 0.9984 -0.0529 -0.0202
vn 0.9966 -0.0538 0.0618
vn 0.9626 -0.0778 -0.2594
vn 0.9690 -0.0764 -0.2348
vn 0.9845 -0.0723 -0.1595
vn 0.9922 -0.0714 -0.1026
vn 0.9967 -0.0803 -0.0152
vn 0.9811 0.1081 -0.1603
vn 0.9926 0.0942 0.0766
vn 0.9867 0.0890 0.1359
vn 0.9896 0.0911 0.1111
vn 0.9939 0.0942 0.0571
vn -0.9951 -0.0969 -0.0183
vn -0.9977 0.0672 0.0128
vn -0.9953 0.0489 -0.0832
vn -0.9911 0.0373 -0.1275
vn -0.9909 0.0251 -0.1319
vn -0.9932 0.0119 -0.1162
vn -0.9959 -0.0034 -0.0907
vn -0.9979 -0.0269 -0.0590
vn -0.9979 -0.0561 -0.0316
vn -0.9825 -0.0639 0.1752
vn -0.9972 -0.0544 -0.0517
vn -0.9900 -0.0514 -0.1312
vn -0.9911 -0.0517 -0.1224
vn -0.9951 -0.0522 -0.0837
vn -0.9821 -0.0332 0.1857
vn -0.9995 -0.0287 -0.0164
vn -0.9920 -0.0246 -0.1238
vn -0.9911 -0.0236 -0.1309
vn -0.9940 -0.0240 -0.1065
vn -0.9801 -0.0092 0.1984
vn -0.9998 -0.0052 0.0175
vn -0.9945 -0.0013 -0.1043
vn -0.9910 -0.0021 -0.1340
vn -0.9925 -0.0025 -0.1223
vn -0.9766 0.0081 0.2149
vn -0.9987 0.0083 0.0505
vn -0.9973 0.0104 -0.0722
vn -0.9918 0.0118 -0.1270
vn -0.9911 0.0120 -0.1327
vn -0.9711 0.0240 0.2376
vn -0.9961 0.0239 0.0853
vn -0.9991 0.0265 -0.0344
vn -0.9943 0.0264 -0.1031
vn -0.9912 0.0253 -0.1302
vn -0.9657 0.0445 0.2559
vn -0.9919 0.0457 0.1184
vn -0.9988 0.0405 0.0280
vn -0.9973 0.0392 -0.0624
vn -0.9937 0.0383 -0.1050
vn -0.9637 0.0611 0.2599
vn -0.9832 0.0574 0.1733
vn -0.9945 0.0563 0.0879
vn -0.9984 0.0529 0.0202
vn -0.9966 0.0538 -0.0616
vn -0.9626 0.0778 0.2593
vn -0.9691 0.0764 0.2346
vn -0.9846 0.0723 0.1594
vn -0.9922 0.0714 0.1023
vn -0.9967 0.0803 0.0153
vn -0.9812 -0.1081 0.1601
vn -0.9926 -0.0942 -0.0764
vn -0.9867 -0.0890 -0.1359
vn -0.9896 -0.0911 -0.1111
vn -0.9939 -0.0942 -0.0571
vn 0.0639 0.9961 -0.0611
vn 0.1676 -0.0285 0.9854
vn 0.0977 -0.9937 -0.0556
vn 0.0330 0.2798 -0.9595
vn 0.2624 0.0330 0.9644
vn 0.2605 0.0202 0.9653
vn 0.2532 0.0106 0.9674
vn 0.2368 0.0022 0.9715
vn 0.2166 -0.0041 0.9762
vn 0.1997 -0.0098 0.9798
vn 0.1871 -0.0160 0.9822
vn 0.1761 -0.0222 0.9841
vn -0.0165 0.4001 -0.9163
vn 0.0078 0.3637 -0.9315
vn 0.0424 0.3510 -0.9354
vn 0.0785 0.3389 -0.9375
vn 0.1086 0.3284 -0.9383
vn 0.1271 0.3173 -0.9397
vn 0.1254 0.3051 -0.9440
vn 0.0889 0.2942 -0.9516
vn 0.0701 0.9955 -0.0643
vn 0.0725 0.9954 -0.0634
vn 0.0676 0.9958 -0.0623
vn 0.0639 0.9961 -0.0610
vn 0.0637 0.9961 -0.0610
vn 0.1005 -0.9937 -0.0502
vn 0.0987 -0.9934 -0.0580
vn 0.0982 -0.9934 -0.0599
vn 0.0978 -0.9935 -0.0588
vn 0.0976 -0.9936 -0.0567
usemtl None
s off
f 70/1/1 30/2/1 4/3/1 13/4/1
f 21/5/2 35/6/2 20/7/2 3/8/2
f 35/6/3 40/9/3 19/10/3 20/7/3
f 40/9/4 45/11/4 18/12/4 19/10/4
f 45/11/5 50/13/5 17/14/5 18/12/5
f 50/13/6 55/15/6 16/16/6 17/14/6
f 55/15/7 60/17/7 15/18/7 16/16/7
f 60/17/8 65/19/8 14/20/8 15/18/8
f 65/19/9 70/1/9 13/4/9 14/20/9
f 11/21/10 12/22/10 66/23/10 61/24/10
f 61/24/11 66/23/11 67/25/11 62/26/11
f 62/26/12 67/25/12 68/27/12 63/28/12
f 63/28/13 68/27/13 69/29/13 64/30/13
f 64/30/14 69/29/14 70/1/14 65/19/14
f 10/31/15 11/21/15 61/24/15 56/32/15
f 56/32/16 61/24/16 62/26/16 57/33/16
f 57/33/17 62/26/17 63/28/17 58/34/17
f 58/34/18 63/28/18 64/30/18 59/35/18
f 59/35/19 64/30/19 65/19/19 60/17/19
f 9/36/20 10/31/20 56/32/20 51/37/20
f 51/37/21 56/32/21 57/33/21 52/38/21
f 52/38/22 57/33/22 58/34/22 53/39/22
f 53/39/23 58/34/23 59/35/23 54/40/23
f 54/40/24 59/35/24 60/17/24 55/15/24
f 8/41/25 9/36/25 51/37/25 46/42/25
f 46/42/26 51/37/26 52/38/26 47/43/26
f 47/43/27 52/38/27 53/39/27 48/44/27
f 48/44/28 53/39/28 54/40/28 49/45/28
f 49/45/29 54/40/29 55/15/29 50/13/29
f 7/46/30 8/41/30 46/42/30 41/47/30
f 41/47/31 46/42/31 47/43/31 42/48/31
f 42/48/32 47/43/32 48/44/32 43/49/32
f 43/49/33 48/44/33 49/45/33 44/50/33
f 44/50/34 49/45/34 50/13/34 45/11/34
f 6/51/35 7/46/35 41/47/35 36/52/35
f 36/52/36 41/47/36 42/48/36 37/53/36
f 37/53/37 42/48/37 43/49/37 38/54/37
f 38/54/38 43/49/38 44/50/38 39/55/38
f 39/55/39 44/50/39 45/11/39 40/9/39
f 5/56/40 6/51/40 36/52/40 31/57/40
f 31/57/41 36/52/41 37/53/41 32/58/41
f 32/58/42 37/53/42 38/54/42 33/59/42
f 33/59/43 38/54/43 39/55/43 34/60/43
f 34/60/44 39/55/44 40/9/44 35/6/44
f 1/61/45 5/56/45 31/57/45 25/62/45
f 25/62/46 31/57/46 32/58/46 24/63/46
f 24/63/47 32/58/47 33/59/47 23/64/47
f 23/64/48 33/59/48 34/60/48 22/65/48
f 22/65/49 34/60/49 35/6/49 21/5/49
f 12/22/50 2/66/50 26/67/50 66/23/50
f 66/23/51 26/67/51 27/68/51 67/25/51
f 67/25/52 27/68/52 28/69/52 68/27/52
f 68/27/53 28/69/53 29/70/53 69/29/53
f 69/29/54 29/70/54 30/2/54 70/1/54
f 140/71/55 83/72/55 74/73/55 100/74/55
f 91/75/56 73/76/56 90/77/56 105/78/56
f 105/78/57 90/77/57 89/79/57 110/80/57
f 110/80/58 89/79/58 88/81/58 115/82/58
f 115/82/59 88/81/59 87/83/59 120/84/59
f 120/84/60 87/83/60 86/85/60 125/86/60
f 125/86/61 86/85/61 85/87/61 130/88/61
f 130/88/62 85/87/62 84/89/62 135/90/62
f 135/90/63 84/89/63 83/72/63 140/71/63
f 81/91/64 131/92/64 136/93/64 82/94/64
f 131/92/65 132/95/65 137/96/65 136/93/65
f 132/95/66 133/97/66 138/98/66 137/96/66
f 133/97/67 134/99/67 139/100/67 138/98/67
f 134/99/68 135/90/68 140/71/68 139/100/68
f 80/101/69 126/102/69 131/92/69 81/91/69
f 126/102/70 127/103/70 132/95/70 131/92/70
f 127/103/71 128/104/71 133/97/71 132/95/71
f 128/104/72 129/105/72 134/99/72 133/97/72
f 129/105/73 130/88/73 135/90/73 134/99/73
f 79/106/74 121/107/74 126/102/74 80/101/74
f 121/107/75 122/108/75 127/103/75 126/102/75
f 122/108/76 123/109/76 128/104/76 127/103/76
f 123/109/77 124/110/77 129/105/77 128/104/77
f 124/110/78 125/86/78 130/88/78 129/105/78
f 78/111/79 116/112/79 121/107/79 79/106/79
f 116/112/80 117/113/80 122/108/80 121/107/80
f 117/113/81 118/114/81 123/109/81 122/108/81
f 118/114/82 119/115/82 124/110/82 123/109/82
f 119/115/83 120/84/83 125/86/83 124/110/83
f 77/116/84 111/117/84 116/112/84 78/111/84
f 111/117/85 112/118/85 117/113/85 116/112/85
f 112/118/86 113/119/86 118/114/86 117/113/86
f 113/119/87 114/120/87 119/115/87 118/114/87
f 114/120/88 115/82/88 120/84/88 119/115/88
f 76/121/89 106/122/89 111/117/89 77/116/89
f 106/122/90 107/123/90 112/118/90 111/117/90
f 107/123/91 108/124/91 113/119/91 112/118/91
f 108/124/92 109/125/92 114/120/92 113/119/92
f 109/125/93 110/80/93 115/82/93 114/120/93
f 75/126/94 101/127/94 106/122/94 76/121/94
f 101/127/95 102/128/95 107/123/95 106/122/95
f 102/128/96 103/129/96 108/124/96 107/123/96
f 103/129/97 104/130/97 109/125/97 108/124/97
f 104/130/98 105/78/98 110/80/98 109/125/98
f 71/131/99 95/132/99 101/127/99 75/126/99
f 95/132/100 94/133/100 102/128/100 101/127/100
f 94/133/101 93/134/101 103/129/101 102/128/101
f 93/134/102 92/135/102 104/130/102 103/129/102
f 92/135/103 91/75/103 105/78/103 104/130/103
f 82/94/104 136/93/104 96/136/104 72/137/104
f 136/93/105 137/96/105 97/138/105 96/136/105
f 137/96/106 138/98/106 98/139/106 97/138/106
f 138/98/107 139/100/107 99/140/107 98/139/107
f 139/100/108 140/71/108 100/74/108 99/140/108
f 1/61/109 25/62/109 95/132/109 71/131/109
f 2/66/110 12/22/110 82/94/110 72/137/110
f 4/3/111 30/2/111 100/74/111 74/73/111
f 3/8/112 20/7/112 90/77/112 73/76/112
f 5/56/113 1/61/113 71/131/113 75/126/113
f 6/51/114 5/56/114 75/126/114 76/121/114
f 7/46/115 6/51/115 76/121/115 77/116/115
f 8/41/116 7/46/116 77/116/116 78/111/116
f 9/36/117 8/41/117 78/111/117 79/106/117
f 10/31/118 9/36/118 79/106/118 80/101/118
f 11/21/119 10/31/119 80/101/119 81/91/119
f 12/22/120 11/21/120 81/91/120 82/94/120
f 13/4/121 4/3/121 74/73/121 83/72/121
f 14/20/122 13/4/122 83/72/122 84/89/122
f 15/18/123 14/20/123 84/89/123 85/87/123
f 16/16/124 15/18/124 85/87/124 86/85/124
f 17/14/125 16/16/125 86/85/125 87/83/125
f 18/12/126 17/14/126 87/83/126 88/81/126
f 19/10/127 18/12/127 88/81/127 89/79/127
f 20/7/128 19/10/128 89/79/128 90/77/128
f 21/5/129 3/8/129 73/76/129 91/75/129
f 22/65/130 21/5/130 91/75/130 92/135/130
f 23/64/131 22/65/131 92/135/131 93/134/131
f 24/63/132 23/64/132 93/134/132 94/133/132
f 25/62/133 24/63/133 94/133/133 95/132/133
f 26/67/134 2/66/134 72/137/134 96/136/134
f 27/68/135 26/67/135 96/136/135 97/138/135
f 28/69/136 27/68/136 97/138/136 98/139/136
f 29/70/137 28/69/137 98/139/137 99/140/137
f 30/2/138 29/70/138 99/140/138 100/74/138
